<?xml version="1.0" encoding="UTF-8"?>
<svg width="42px" height="40px" viewBox="0 0 42 40" version="1.1" xmlns="http://www.w3.org/2000/svg" xmlns:xlink="http://www.w3.org/1999/xlink">
    <!-- Generator: Sketch 64 (93537) - https://sketch.com -->
    <title>noun_Animation Timeline_177468</title>
    <desc>Created with Sketch.</desc>
    <g id="Page-1" stroke="none" stroke-width="1" fill="none" fill-rule="evenodd">
        <g id="Artboard" transform="translate(-138.000000, -125.000000)" fill="#303841" fill-rule="nonzero">
            <g id="noun_Animation-Timeline_177468" transform="translate(138.000000, 125.000000)">
                <g id="Group">
                    <path d="M0.579411765,35.55 L15.1035294,35.55 L15.1035294,34.8941176 L15.1035294,33.5805882 L15.0211765,33.5805882 L12.0676471,33.5805882 L12.0676471,30.6270588 L15.0211765,30.6270588 L15.1035294,30.6270588 L15.1035294,29.3141176 L15.1035294,28.6576471 L2.54941176,28.6576471 L2.54941176,17.8252941 L15.1041176,17.8252941 L15.1041176,17.1694118 L15.1041176,15.8564706 L15.0217647,15.8564706 L12.0682353,15.8564706 L12.0682353,13.0658824 L15.0217647,13.0658824 L15.1041176,13.0658824 L15.1041176,11.5882353 L15.1041176,11.0958824 L0.579411765,11.0958824 L0.579411765,35.55 Z M7.14470588,13.0652941 L10.0988235,13.0652941 L10.0988235,15.8558824 L7.14470588,15.8558824 L7.14470588,13.0652941 Z M2.54941176,13.0652941 L5.17529412,13.0652941 L5.17529412,15.8558824 L2.54941176,15.8558824 L2.54941176,13.0652941 L2.54941176,13.0652941 Z M7.14470588,30.6264706 L10.0988235,30.6264706 L10.0988235,33.58 L7.14470588,33.58 L7.14470588,30.6264706 Z M2.54941176,30.6264706 L5.17529412,30.6264706 L5.17529412,33.58 L2.54941176,33.58 L2.54941176,30.6264706 L2.54941176,30.6264706 Z" id="Shape"></path>
                    <path d="M19.0429412,11.0958824 L19.0429412,13.0652941 L21.9152941,13.0652941 L21.9152941,15.8558824 L19.0429412,15.8558824 L19.0429412,17.8252941 L31.8441176,17.8252941 L31.8441176,28.6570588 L19.0429412,28.6570588 L19.0429412,30.6270588 L21.9152941,30.6270588 L21.9152941,33.5805882 L19.0429412,33.5805882 L19.0429412,35.5505882 L41.7735294,35.5505882 L41.7735294,30.6276471 L41.7735294,28.6576471 L39.8041176,28.6576471 L33.8135294,28.6576471 L33.8135294,17.8252941 L39.8041176,17.8252941 L41.7735294,17.8252941 L41.7735294,15.8558824 L41.7735294,11.0958824 L19.0429412,11.0958824 Z M26.8382353,15.8558824 L23.8847059,15.8558824 L23.8847059,13.0652941 L26.8382353,13.0652941 L26.8382353,15.8558824 Z M31.7623529,15.8558824 L28.8082353,15.8558824 L28.8082353,13.0652941 L31.7623529,13.0652941 L31.7623529,15.8558824 Z M26.8382353,33.58 L23.8847059,33.58 L23.8847059,30.6264706 L26.8382353,30.6264706 L26.8382353,33.58 Z M31.7623529,33.58 L28.8082353,33.58 L28.8082353,30.6264706 L31.7623529,30.6264706 L31.7623529,33.58 Z M38.6558824,30.6264706 L39.8041176,30.6264706 L39.8041176,33.58 L38.6558824,33.58 L38.6558824,30.6264706 Z M36.6858824,30.6264706 L36.6858824,33.58 L33.8135294,33.58 L33.8135294,30.6264706 L36.6858824,30.6264706 Z M36.6858824,15.8558824 L33.8135294,15.8558824 L33.8135294,13.0652941 L36.6858824,13.0652941 L36.6858824,15.8558824 Z M39.8041176,15.8558824 L38.6558824,15.8558824 L38.6558824,13.0652941 L39.8041176,13.0652941 L39.8041176,15.8558824 Z" id="Shape"></path>
                    <path d="M22.0388235,2.15176471 C22.0388235,1.64823529 21.8470588,1.14411765 21.4623529,0.759411765 C21.0782353,0.374705882 20.5741176,0.182941176 20.0705882,0.182941176 L14.0776471,0.182941176 C13.5741176,0.182941176 13.0694118,0.374705882 12.6847059,0.759411765 C12.3005882,1.14411765 12.1082353,1.64823529 12.1082353,2.15176471 L12.1082353,4.63705882 L16.0894118,7.14705882 L16.0894118,11.0964706 L16.0894118,11.5882353 L16.0894118,13.0652941 L16.0894118,15.8558824 L16.0894118,17.1688235 L16.0894118,17.8247059 L16.0894118,28.6564706 L16.0894118,29.3129412 L16.0894118,30.6258824 L16.0894118,33.5794118 L16.0894118,34.8929412 L16.0894118,35.5488235 L16.0894118,39.8164706 L18.0594118,39.8164706 L18.0594118,35.5488235 L18.0594118,33.5788235 L18.0594118,30.6252941 L18.0594118,28.6552941 L18.0594118,17.8252941 L18.0594118,15.8558824 L18.0594118,13.0652941 L18.0594118,11.0958824 L18.0594118,7.14647059 L22.04,4.63647059 L22.04,2.15176471 L22.0388235,2.15176471 Z" id="Path"></path>
                </g>
            </g>
        </g>
    </g>
</svg>