<?xml version="1.0" encoding="UTF-8"?>
<svg width="44px" height="40px" viewBox="0 0 44 40" version="1.1" xmlns="http://www.w3.org/2000/svg" xmlns:xlink="http://www.w3.org/1999/xlink">
    <!-- Generator: Sketch 64 (93537) - https://sketch.com -->
    <title>analytics</title>
    <desc>Created with Sketch.</desc>
    <g id="Page-1" stroke="none" stroke-width="1" fill="none" fill-rule="evenodd">
        <g id="Artboard" transform="translate(-129.000000, -312.000000)" fill="#303841" fill-rule="nonzero">
            <g id="analytics" transform="translate(129.000000, 312.000000)">
                <path d="M2.19999684,-0.00246463856 C0.993883505,-0.00246463856 0.00286407092,0.986039891 0.00286407092,2.1821848 L0.00286407092,28.3654328 C0.00286407092,29.5615777 0.993883505,30.5444199 2.19999684,30.5444199 L41.7985688,30.5444199 C43.0046816,30.5444199 44.0028641,29.5615777 44.0028641,28.3654328 L44.0028641,2.1821848 C44.0028641,0.986039891 43.0046816,-0.00246463856 41.7985688,-0.00246463856 L2.19999684,-0.00246463856 Z M2.19999684,1.45209001 L41.7985688,1.45209001 C42.2175154,1.45209001 42.5362001,1.76671163 42.5362001,2.1821848 L42.5362001,23.2702723 L1.46379603,23.2702723 L1.46379603,2.1821848 C1.46379603,1.76671163 1.78104338,1.45209001 2.19999684,1.45209001 Z M20.6722621,7.56002656 C18.9719834,4.70259372 15.8626573,2.90804651 12.4666638,2.90804651 C7.21023301,2.90804651 2.93333009,7.14961109 2.93333009,12.362583 C2.93333009,17.5755824 7.21023301,21.817147 12.4666638,21.817147 C17.7230946,21.817147 21.9999978,17.5755824 21.9999978,12.362583 C21.9999978,12.1110726 21.9900198,11.8591499 21.9699253,11.6083267 C21.891737,10.6413449 20.4293682,10.7578368 20.5075566,11.7248736 C20.5247408,11.9370769 20.5333329,12.14972 20.5333329,12.362638 C20.5333329,14.3132041 19.8328668,16.0969487 18.6684873,17.4833894 L16.5716161,15.4038521 C17.21516,14.5527849 17.6014287,13.5010592 17.6014287,12.3612361 C17.6014287,9.80646784 15.6799854,7.68789829 13.1999987,7.33138576 L13.1999987,4.39957181 C15.9114107,4.64421033 18.3207041,6.22996269 19.596616,8.6268429 L18.5481768,9.66661157 C17.795432,10.3495653 18.8905334,11.4401309 19.5822868,10.6964573 L22.3050792,7.99617031 L27.8652361,7.99617031 C28.9305489,8.09100209 28.9305489,6.4524463 27.8652361,6.54730557 L21.9649086,6.54730557 C21.7591411,6.56379805 21.6023265,6.63801423 21.4829403,6.75621037 L20.6722621,7.56002656 Z M35.1999989,5.09269595 C36.178728,5.09269595 36.178728,3.63673944 35.1999989,3.63673944 L30.7634712,3.63673944 C29.7496529,3.68319327 29.8198395,5.13912229 30.798588,5.09269595 L35.1999989,5.09269595 Z M38.8652364,5.09269595 C39.8439655,5.09269595 39.8439655,3.63673944 38.8652364,3.63673944 L38.0968037,3.63673944 C37.0801251,3.68704152 37.1560324,5.14288808 38.1348031,5.09269595 L38.8652364,5.09269595 Z M11.7333305,4.39951684 L11.7333305,7.32992892 C9.25198715,7.68451733 7.33190028,9.80490105 7.33190028,12.3611811 C7.33190028,15.1641888 9.63741967,17.4563417 12.4637965,17.4563417 C13.6142132,17.4563417 14.6760872,17.0714896 15.5346299,16.4321859 L17.6286414,18.514582 C16.2308859,19.6685611 14.4327379,20.3625923 12.4666638,20.3625923 C8.00287854,20.3625923 4.39999688,16.7894956 4.39999688,12.362583 C4.39999688,8.18121598 7.61527498,4.76597984 11.7333305,4.39951684 Z M30.7634712,6.54725059 C29.8286977,6.65802511 29.8923155,7.97129414 30.7985326,7.99611533 L38.8652003,7.99611533 C39.8723222,8.08435012 39.9562174,6.56585961 38.9053062,6.54582125 L30.7634712,6.54725059 Z M12.4637965,8.72623761 C14.4975278,8.72623761 16.1347605,10.3442603 16.1347605,12.3611811 C16.1347605,14.378102 14.4975278,16.0017871 12.4637965,16.0017871 C10.4300652,16.0017871 8.79856707,14.378102 8.79856707,12.3611811 C8.79856707,10.3442603 10.4300652,8.72623761 12.4637965,8.72623761 Z M30.7985686,9.45066998 C29.8198395,9.45066998 29.8198395,10.9066265 30.7985686,10.9066265 L31.5361999,10.9066265 C32.514929,10.9066265 32.514929,9.45066998 31.5361999,9.45066998 L30.7985686,9.45066998 Z M34.4637978,9.45066998 C33.4850687,9.45066998 33.4850687,10.9066265 34.4637978,10.9066265 L38.8652364,10.9066265 C39.8439655,10.9066265 39.8439655,9.45066998 38.8652364,9.45066998 L34.4637978,9.45066998 Z M37.3985687,13.8157029 C36.9935719,13.8173301 36.6665473,14.1441836 36.6680912,14.5458306 L36.6680912,21.0912852 C36.6695629,21.4907057 36.9958087,21.8141233 37.3985687,21.8157231 L40.3319012,21.8157231 C40.7368925,21.8172569 41.0664753,21.4929322 41.0681016,21.0912852 L41.0681016,14.5458306 C41.069563,14.1419571 40.7391292,13.814169 40.3319012,13.8157029 L37.3985687,13.8157029 Z M38.1347615,15.2702629 L39.6014291,15.2702629 L39.6014291,20.3597611 L38.1347615,20.3597611 L38.1347615,15.2702629 Z M30.7985684,16.7262194 L30.7985684,21.0912852 C30.8000348,21.493482 31.1306432,21.8180266 31.5361999,21.8157299 L34.4637978,21.8157299 C34.8687974,21.8172569 35.1983775,21.4929322 35.1999989,21.0912852 L35.1999989,16.7262194 C35.1985327,16.3245725 34.8687974,16.0002753 34.4637978,16.0017818 L31.4982421,16.0017818 C31.0845894,16.0383454 30.7982748,16.35184 30.7985684,16.7262194 L30.7985684,16.7262194 Z M24.9304641,18.1807741 L24.9304641,21.0912852 C24.9319306,21.493482 25.2625389,21.8180266 25.6680956,21.8157299 L28.6014289,21.8157299 C29.004189,21.8141233 29.3302879,21.4907057 29.331901,21.0912852 L29.331901,18.1807741 C29.3304348,17.7813536 29.004189,17.457936 28.6014289,17.4563417 L25.6301378,17.4563417 C25.2164852,17.4929001 24.9301706,17.8063947 24.9304641,18.1807741 L24.9304641,18.1807741 Z M32.2666664,17.4563417 L33.7333313,17.4563417 L33.7333313,20.3597611 L32.2666664,20.3597611 L32.2666664,17.4563417 Z M26.3985685,18.9052065 L27.8652361,18.9052065 L27.8652361,20.3597611 L26.3985685,20.3597611 L26.3985685,18.9052065 Z M1.46379603,24.7247994 L42.5362001,24.7247994 L42.5362001,28.3654328 C42.5362001,28.780906 42.2175209,29.0898652 41.7985688,29.0898652 L2.19999684,29.0898652 C1.78104338,29.0898652 1.46379603,28.780906 1.46379603,28.3654328 L1.46379603,24.7247994 Z M20.5361988,26.1793541 C19.5574695,26.1793541 19.5574695,27.6353106 20.5361988,27.6353106 L23.4637967,27.6353106 C24.4425258,27.6353106 24.4425258,26.1793541 23.4637967,26.1793541 L20.5361988,26.1793541 Z M17.2018194,32.3696981 C16.8483233,33.1216179 16.2151853,33.9998977 15.1207001,34.9094582 L13.9304633,34.9094582 C12.72435,34.9094582 11.7333256,35.8923003 11.7333256,37.0884452 L11.7333256,38.5444017 C11.7318638,38.9460487 12.0588058,39.2729297 12.4637965,39.274524 L31.5361999,39.274524 C31.9411911,39.2729297 32.268213,38.9460487 32.2666719,38.5444017 L32.2666719,37.0884452 C32.2666719,35.8923003 31.2742149,34.9094582 30.0680965,34.9094582 L28.8792955,34.9094582 C27.7849358,33.9999526 27.1516518,33.1215629 26.7981772,32.3696981 C26.3351365,31.482265 25.0871487,32.1313817 25.4690077,32.9847578 C25.7553168,33.5937428 26.1757018,34.2469551 26.7652278,34.9094582 L17.2404954,34.9094582 C17.7612719,34.3549259 18.2446854,33.5937428 18.5309862,32.9847578 C18.9332415,32.0309424 17.5820895,31.5397963 17.2018194,32.3696981 Z M13.9304633,36.3640128 L30.0680965,36.3640128 C30.4870486,36.3640128 30.7985686,36.6729445 30.7985686,37.0884452 L30.7985686,37.8199693 L13.1999973,37.8199693 L13.1999973,37.0884452 C13.1999973,36.6729445 13.5115026,36.3640128 13.9304633,36.3640128 Z" id="path12843"></path>
            </g>
        </g>
    </g>
</svg>