<?xml version="1.0" encoding="UTF-8"?>
<svg width="32px" height="40px" viewBox="0 0 32 40" version="1.1" xmlns="http://www.w3.org/2000/svg" xmlns:xlink="http://www.w3.org/1999/xlink">
    <!-- Generator: Sketch 64 (93537) - https://sketch.com -->
    <title>spreadsheet (1)</title>
    <desc>Created with Sketch.</desc>
    <g id="Page-1" stroke="none" stroke-width="1" fill="none" fill-rule="evenodd">
        <g id="Artboard" transform="translate(-256.000000, -305.000000)" fill="#303841" fill-rule="nonzero">
            <g id="spreadsheet-(1)" transform="translate(256.000000, 305.000000)">
                <path d="M22.1676562,0 L4.369375,0 C3.46820312,0 2.735,0.733203125 2.735,1.634375 L2.735,4.296875 L2.21695312,4.296875 C1.02,4.296875 0.04609375,5.27070313 0.04609375,6.46773438 L0.04609375,12.3377344 C0.04609375,13.5346094 1.01984375,14.5084375 2.21679687,14.5084375 L2.735,14.5084375 L2.735,38.365625 C2.735,39.266875 3.46820312,40 4.369375,40 L30.1945313,40 C31.0957031,40 31.8289063,39.2667969 31.8289063,38.365625 L31.8289063,31.6310937 C31.8289063,31.3075 31.5665625,31.0451562 31.2429688,31.0451562 C30.919375,31.0451562 30.6570313,31.3075 30.6570313,31.6310937 L30.6570313,38.365625 C30.6570313,38.6207031 30.4495313,38.828125 30.1945313,38.828125 L4.36945313,38.828125 C4.114375,38.828125 3.90695313,38.620625 3.90695313,38.365625 L3.90695313,11.3389844 L6.44601563,11.3389844 C6.76960938,11.3389844 7.03195313,11.0766406 7.03195313,10.7530469 C7.03195313,10.4294531 6.76960938,10.1671094 6.44601563,10.1671094 L2.21679688,10.1671094 C1.856875,10.1671094 1.51710938,10.2551563 1.21796875,10.4108594 L1.21796875,6.46773438 C1.21796875,5.916875 1.66617188,5.46875 2.21695313,5.46875 L11.3790625,5.46875 C11.9299219,5.46875 12.378125,5.916875 12.378125,6.46773438 L12.378125,9.16804687 C12.378125,9.71890625 11.93,10.1670313 11.3790625,10.1670313 L9.18023438,10.1670313 C8.85664063,10.1670313 8.59429688,10.429375 8.59429688,10.7529688 C8.59429688,11.0765625 8.85664063,11.3389063 9.18023438,11.3389063 L11.3790625,11.3389063 C12.5760938,11.3389063 13.55,10.3650781 13.55,9.16804687 L13.55,6.46773438 C13.55,5.27070313 12.5761719,4.296875 11.3791406,4.296875 L3.906875,4.296875 L3.906875,1.634375 C3.906875,1.37929688 4.114375,1.171875 4.369375,1.171875 L21.6589063,1.171875 C23.5247656,1.171875 25.0428125,2.68984375 25.0428125,4.55570313 L25.0428125,5.15164063 C25.0428125,6.05289062 25.7760156,6.78601563 26.6771875,6.78601563 L27.2730469,6.78601563 C29.1389063,6.78601563 30.6569531,8.3040625 30.6569531,10.1699219 L30.6569531,28.8966406 C30.6569531,29.2202344 30.9192969,29.4825781 31.2428906,29.4825781 C31.5664844,29.4825781 31.8289063,29.2202344 31.8289063,28.8966406 L31.8289063,9.66125 C31.8289063,4.33398438 27.4949219,0 22.1676563,0 L22.1676562,0 Z M2.21679687,11.3389844 L2.735,11.3389844 L2.735,13.3365625 L2.21679687,13.3365625 C1.66609375,13.3365625 1.21796875,12.8885156 1.21796875,12.3377344 C1.21796875,11.7869531 1.66609375,11.3389844 2.21679687,11.3389844 Z M27.273125,5.61421875 L26.6772656,5.61421875 C26.4222656,5.61421875 26.2147656,5.40671875 26.2147656,5.15171875 L26.2147656,4.55578125 C26.2147656,3.4978125 25.8524219,2.523125 25.2451563,1.74898438 C27.4549219,2.61140625 29.2175781,4.37414063 30.08,6.58390625 C29.3057812,5.9765625 28.3310156,5.61421875 27.273125,5.61421875 L27.273125,5.61421875 Z" id="Shape"></path>
                <path d="M7.2271875,14.0311719 C6.47335938,14.0311719 5.86,14.6445312 5.86,15.3983594 L5.86,35.5078125 C5.86,36.2616406 6.47335938,36.875 7.2271875,36.875 L27.3367188,36.875 C28.0905469,36.875 28.7039063,36.2616406 28.7039063,35.5078125 L28.7039063,15.3983594 C28.7039063,14.6445312 28.0905469,14.0311719 27.3367188,14.0311719 L7.2271875,14.0311719 Z M19.9551563,19.0585156 L21.5932031,19.0585156 L21.5932031,21.4499219 L16.82625,21.4499219 L16.82625,19.0585156 L17.2207813,19.0585156 C17.544375,19.0585156 17.8067188,18.7961719 17.8067188,18.4725781 C17.8067188,18.1489844 17.544375,17.8866406 17.2207813,17.8866406 L16.82625,17.8866406 L16.82625,15.2030469 L21.5932031,15.2030469 L21.5932031,17.8866406 L19.9551563,17.8866406 C19.6315625,17.8866406 19.3692188,18.1489844 19.3692188,18.4725781 C19.3692188,18.7961719 19.6315625,19.0585156 19.9551563,19.0585156 L19.9551563,19.0585156 Z M16.8261719,32.1398437 L16.8261719,29.7484375 L21.593125,29.7484375 L21.593125,32.1398437 L16.8261719,32.1398437 Z M21.5932031,33.3117187 L21.5932031,35.703125 L16.82625,35.703125 L16.82625,33.3117187 L21.5932031,33.3117187 Z M9.71546875,26.1850781 L9.71546875,28.5764844 L7.031875,28.5764844 L7.031875,26.1850781 L9.71546875,26.1850781 Z M7.031875,25.0132031 L7.031875,22.6217969 L9.71546875,22.6217969 L9.71546875,25.0132031 L7.031875,25.0132031 Z M10.8873438,26.1850781 L15.6542969,26.1850781 L15.6542969,28.5764844 L10.8873438,28.5764844 L10.8873438,26.1850781 Z M16.8261719,26.1850781 L21.593125,26.1850781 L21.593125,28.5764844 L16.8261719,28.5764844 L16.8261719,26.1850781 Z M22.7650781,26.1850781 L27.5320313,26.1850781 L27.5320313,28.5764844 L22.7650781,28.5764844 L22.7650781,26.1850781 Z M22.7650781,25.0132031 L22.7650781,22.6217969 L27.5320313,22.6217969 L27.5320313,25.0132031 L22.7650781,25.0132031 Z M21.5932031,25.0132031 L16.82625,25.0132031 L16.82625,22.6217969 L21.5932031,22.6217969 L21.5932031,25.0132031 Z M15.6542969,25.0132031 L10.8873438,25.0132031 L10.8873438,22.6217969 L15.6542969,22.6217969 L15.6542969,25.0132031 Z M10.8873438,21.4499219 L10.8873438,19.0585156 L15.6542969,19.0585156 L15.6542969,21.4499219 L10.8873438,21.4499219 Z M10.8873438,17.8866406 L10.8873438,15.2030469 L15.6542969,15.2030469 L15.6542969,17.8866406 L10.8873438,17.8866406 Z M9.71546875,21.4499219 L7.031875,21.4499219 L7.031875,19.0585156 L9.71546875,19.0585156 L9.71546875,21.4499219 Z M7.031875,29.7484375 L9.71546875,29.7484375 L9.71546875,32.1398437 L7.031875,32.1398437 L7.031875,29.7484375 Z M10.8873438,29.7484375 L15.6542969,29.7484375 L15.6542969,32.1398437 L10.8873438,32.1398437 L10.8873438,29.7484375 Z M22.7650781,29.7484375 L27.5320313,29.7484375 L27.5320313,32.1398437 L22.7650781,32.1398437 L22.7650781,29.7484375 Z M27.5320313,21.4499219 L22.7650781,21.4499219 L22.7650781,19.0585156 L27.5320313,19.0585156 L27.5320313,21.4499219 Z M7.031875,15.3983594 C7.031875,15.2907031 7.11953125,15.2030469 7.2271875,15.2030469 L9.71546875,15.2030469 L9.71546875,17.8866406 L7.031875,17.8866406 L7.031875,15.3983594 Z M7.031875,35.5078125 L7.031875,33.3117187 L9.71546875,33.3117187 L9.71546875,35.703125 L7.2271875,35.703125 C7.11953125,35.703125 7.031875,35.6154687 7.031875,35.5078125 Z M10.8873438,33.3117187 L15.6542969,33.3117187 L15.6542969,35.703125 L10.8873438,35.703125 L10.8873438,33.3117187 Z M27.3367188,35.703125 L22.7650781,35.703125 L22.7650781,33.3117187 L27.5320313,33.3117187 L27.5320313,35.5078125 C27.5320313,35.6154687 27.444375,35.703125 27.3367188,35.703125 Z M27.5320313,15.3983594 L27.5320313,17.8866406 L22.7650781,17.8866406 L22.7650781,15.2030469 L27.3367188,15.2030469 C27.444375,15.2030469 27.5320313,15.290625 27.5320313,15.3983594 Z" id="Shape"></path>
            </g>
        </g>
    </g>
</svg>