<?xml version="1.0" encoding="UTF-8"?>
<svg width="515px" height="314px" viewBox="0 0 515 314" version="1.1" xmlns="http://www.w3.org/2000/svg" xmlns:xlink="http://www.w3.org/1999/xlink">
    <!-- Generator: Sketch 64 (93537) - https://sketch.com -->
    <title>2751419</title>
    <desc>Created with Sketch.</desc>
    <defs>
        <path d="M59.64,29.5742188 C59.64,13.4320312 46.4171053,0.34609375 30.105,0.34609375 C13.7936842,0.34609375 0.57,13.4320312 0.57,29.5742188 C0.57,40.9671875 7.16131579,50.8304687 16.7731579,55.6523438 L16.7731579,68.0335937 C16.7731579,71.5109375 19.6207895,74.3289063 23.1339474,74.3289063 L37.0760526,74.3289063 C40.5884211,74.3289063 43.4360526,71.5109375 43.4360526,68.0335937 L43.4360526,55.6523438 C53.0478947,50.8304687 59.64,40.9671875 59.64,29.5742188" id="path-1"></path>
    </defs>
    <g id="Page-1" stroke="none" stroke-width="1" fill="none" fill-rule="evenodd">
        <g id="Artboard" transform="translate(-50.000000, -133.000000)">
            <g id="2751419" transform="translate(50.000000, 133.000000)">
                <path d="M262.000399,114 L262.000399,114 C258.134173,114 255,110.73325 255,106.702455 L255,106 L269,106 L269,106.702455 C269,110.73325 265.866625,114 262.000399,114" id="Fill-2" fill="#104478"></path>
                <path d="M269.281096,108 L255.718135,108 C254.217041,108 253,106.735453 253,105.175765 L253,92 L272,92 L272,105.175765 C272,106.735453 270.782959,108 269.281096,108" id="Fill-3" fill="#2B5D8F"></path>
                <path d="M272.965524,99 L251.034476,99 C250.463483,99 250,98.551963 250,98 C250,97.448037 250.463483,97 251.034476,97 L272.965524,97 C273.537313,97 274,97.448037 274,98 C274,98.551963 273.537313,99 272.965524,99" id="Fill-4" fill="#104478"></path>
                <path d="M272.965524,104 L251.034476,104 C250.463483,104 250,103.551963 250,103 C250,102.447267 250.463483,102 251.034476,102 L272.965524,102 C273.537313,102 274,102.447267 274,103 C274,103.551963 273.537313,104 272.965524,104" id="Fill-5" fill="#104478"></path>
                <path d="M292,50.2349152 C292,34.0889776 278.792775,21 262.5,21 C246.208014,21 233,34.0889776 233,50.2349152 C233,61.6305307 239.583505,71.4961034 249.183957,76.3190986 L249.183957,88.703225 C249.183957,92.1813766 252.029002,95 255.537208,95 L269.462792,95 C272.970998,95 275.816043,92.1813766 275.816043,88.703225 L275.816043,76.3190986 C285.415707,71.4961034 292,61.6305307 292,50.2349152" id="Fill-6" fill="#FCDFD7"></path>
                <g id="Group-9" transform="translate(232.000000, 21.000000)">
                    <mask id="mask-2" fill="white">
                        <use xlink:href="#path-1"></use>
                    </mask>
                    <g id="Clip-8"></g>
                    <path d="M23.5578947,74.8367187 L23.5578947,41.9078125 C23.5610526,41.721875 23.6218421,41.6117187 23.7244737,41.5117187 C23.8271053,41.4148437 23.9802632,41.3554688 24.1207895,41.35625 C24.2573684,41.359375 24.3734211,41.3960937 24.5028947,41.5195312 L26.8618421,43.8539062 C27.1760526,44.1648438 27.6805263,44.1757813 28.0081579,43.8773438 L29.6360526,42.3953125 C29.7434211,42.2976563 29.8744737,42.2507813 30.0110526,42.2507813 C30.1476316,42.2507813 30.2786842,42.2976563 30.3860526,42.3953125 L32.0147368,43.8773438 C32.3415789,44.1757813 32.8460526,44.1648438 33.1602632,43.8539062 L35.5192105,41.5195312 C35.6478947,41.3960937 35.7639474,41.359375 35.9005263,41.35625 C36.0410526,41.3554688 36.1942105,41.4148437 36.2976316,41.5117187 C36.3994737,41.6117187 36.4610526,41.721875 36.4642105,41.9078125 L36.4642105,74.8367187 C36.4642105,75.2890625 36.8344737,75.6554687 37.2915789,75.6554687 C37.7486842,75.6554687 38.1197633,75.2890625 38.1197633,74.8367187 L38.1197633,41.9078125 C38.1228947,41.26875 37.8434211,40.69375 37.4273684,40.3148438 C37.0121053,39.9320313 36.4697368,39.7195313 35.9005263,39.7179349 C35.3573684,39.7148437 34.7818421,39.928125 34.3484211,40.3609375 L32.5507895,42.1398437 L31.5071053,41.1890625 C31.0863158,40.8054687 30.5455263,40.6109375 30.0110526,40.6117188 C29.4765789,40.6109375 28.9365789,40.8054687 28.515,41.1890625 L27.4713158,42.1398437 L25.6736842,40.3609375 C25.2394737,39.928125 24.6639474,39.7148437 24.1207895,39.7179349 C23.5515789,39.7195313 23.0092105,39.9320313 22.5939474,40.3148438 C22.1778947,40.69375 21.8984211,41.26875 21.9015525,41.9078125 L21.9015525,74.8367187 C21.9015525,75.2890625 22.2726316,75.6554687 22.7297368,75.6554687 C23.1868421,75.6554687 23.5578947,75.2890625 23.5578947,74.8367187" id="Fill-7" fill="#0069AA" mask="url(#mask-2)"></path>
                </g>
                <line x1="262.5" y1="15" x2="262.5" y2="5" id="Fill-10" fill="#E7EFFE"></line>
                <path d="M263,15.1765552 L263,4.82344476 C263,4.36894093 262.552694,4 262.000477,4 C261.448259,4 261,4.36894093 261,4.82344476 L261,15.1765552 C261,15.6318441 261.448259,16 262.000477,16 C262.552694,16 263,15.6318441 263,15.1765552" id="Fill-11" fill="#0069AA"></path>
                <line x1="255" y1="16" x2="248" y2="9" id="Fill-12" fill="#E7EFFE"></line>
                <path d="M255.757747,15.5899153 L248.410583,8.24226906 C248.087579,7.91924365 247.56447,7.91924365 247.242253,8.24226906 C246.919249,8.5645066 246.919249,9.08765019 247.242253,9.4106756 L254.589417,16.7583218 C254.912421,17.0805594 255.43553,17.0805594 255.757747,16.7583218 C256.080751,16.4352964 256.080751,15.9121528 255.757747,15.5899153" id="Fill-13" fill="#0069AA"></path>
                <line x1="269" y1="16" x2="276" y2="9" id="Fill-14" fill="#E7EFFE"></line>
                <path d="M269.410676,16.7583218 L276.758322,9.4106756 C277.080559,9.08765019 277.080559,8.5645066 276.758322,8.24226906 C276.435296,7.91924365 275.912153,7.91924365 275.589915,8.24226906 L268.242269,15.5899153 C267.919244,15.9121528 267.919244,16.4352964 268.242269,16.7583218 C268.564507,17.0805594 269.08765,17.0805594 269.410676,16.7583218" id="Fill-15" fill="#0069AA"></path>
                <line x1="225" y1="52.5" x2="215" y2="52.5" id="Fill-16" fill="#E7EFFE"></line>
                <path d="M225.177286,52 L214.822714,52 C214.36818,52 214,52.4480458 214,53 C214,53.5519542 214.36818,54 214.822714,54 L225.177286,54 C225.63182,54 226,53.5519542 226,53 C226,52.4480458 225.63182,52 225.177286,52" id="Fill-17" fill="#0069AA"></path>
                <line x1="225" y1="60" x2="218" y2="67" id="Fill-18" fill="#E7EFFE"></line>
                <path d="M224.589915,59.2416782 L217.242269,66.5893244 C216.919244,66.9123498 216.919244,67.4354934 217.242269,67.7577309 C217.564507,68.0807564 218.08765,68.0807564 218.410676,67.7577309 L225.758322,60.4100847 C226.080559,60.0878472 226.080559,59.5647036 225.758322,59.2416782 C225.435296,58.9194406 224.912153,58.9194406 224.589915,59.2416782" id="Fill-19" fill="#0069AA"></path>
                <line x1="225" y1="46" x2="218" y2="39" id="Fill-20" fill="#E7EFFE"></line>
                <path d="M225.758322,45.5893244 L218.410676,38.2416782 C218.08765,37.9194406 217.564507,37.9194406 217.242269,38.2416782 C216.919244,38.5647036 216.919244,39.0878472 217.242269,39.4100847 L224.589915,46.7577309 C224.912153,47.0807564 225.435296,47.0807564 225.758322,46.7577309 C226.080559,46.4354934 226.080559,45.9123498 225.758322,45.5893244" id="Fill-21" fill="#0069AA"></path>
                <line x1="299" y1="52.5" x2="309" y2="52.5" id="Fill-22" fill="#E7EFFE"></line>
                <path d="M298.823445,54 L309.176555,54 C309.631059,54 310,53.5519542 310,53 C310,52.4480458 309.631059,52 309.176555,52 L298.823445,52 C298.368941,52 298,52.4480458 298,53 C298,53.5519542 298.368941,54 298.823445,54" id="Fill-23" fill="#0069AA"></path>
                <line x1="299" y1="46" x2="306" y2="39" id="Fill-24" fill="#E7EFFE"></line>
                <path d="M299.410583,46.7577309 L306.757747,39.4100847 C307.080751,39.0878472 307.080751,38.5647036 306.757747,38.2416782 C306.434743,37.9194406 305.912421,37.9194406 305.589417,38.2416782 L298.242253,45.5893244 C297.919249,45.9123498 297.919249,46.4354934 298.242253,46.7577309 C298.56447,47.0807564 299.087579,47.0807564 299.410583,46.7577309" id="Fill-25" fill="#0069AA"></path>
                <line x1="299" y1="60" x2="306" y2="67" id="Fill-26" fill="#E7EFFE"></line>
                <path d="M298.242253,60.4100847 L305.589417,67.7577309 C305.912421,68.0807564 306.434743,68.0807564 306.757747,67.7577309 C307.080751,67.4354934 307.080751,66.9123498 306.757747,66.5893244 L299.410583,59.2416782 C299.087579,58.9194406 298.56447,58.9194406 298.242253,59.2416782 C297.919249,59.5647036 297.919249,60.0878472 298.242253,60.4100847" id="Fill-27" fill="#0069AA"></path>
                <path d="M97.4465349,122.171584 C97.4732166,122.185771 100.069186,123.527179 104.355518,125.018334 C104.784779,125.16808 105.253278,124.93952 105.402381,124.508409 C105.5507,124.077299 105.323121,123.605993 104.89386,123.457035 C102.798564,122.727221 101.117619,122.035237 99.9648138,121.527677 C99.3888036,121.273109 98.9438475,121.065041 98.6448558,120.9216 C98.4957524,120.849879 98.3827477,120.793922 98.3081959,120.756879 L98.2242271,120.715108 L98.1998997,120.702498 C97.7957509,120.493641 97.2997857,120.652845 97.0918256,121.058735 C96.8830808,121.464626 97.0423861,121.962728 97.4465349,122.171584 Z M111.483448,127.111625 C113.73648,127.653863 116.189624,128.131473 118.789517,128.47116 C119.239966,128.529482 119.652748,128.210287 119.711604,127.757897 C119.769676,127.305506 119.45185,126.890946 119.001401,126.831836 C116.466642,126.500819 114.07,126.034242 111.866408,125.504614 C111.424591,125.398216 110.98042,125.671699 110.874478,126.11542 C110.768536,126.559141 111.040846,127.005226 111.483448,127.111625 Z M126.210945,128.997636 C126.383591,128.999212 126.557807,129 126.732023,129 C128.988193,129 131.303221,128.866017 133.648853,128.56022 C134.100087,128.50111 134.417913,128.08655 134.359057,127.634159 C134.300985,127.180981 133.888204,126.861785 133.436969,126.920896 C131.167458,127.217235 128.923059,127.347278 126.732023,127.347278 C126.562516,127.347278 126.393793,127.346489 126.225856,127.344913 C125.770698,127.340972 125.399509,127.707456 125.394769,128.163787 C125.390876,128.620118 125.755787,128.993695 126.210945,128.997636 Z M140.955707,127.028082 C143.287214,126.341615 145.620291,125.452597 147.925901,124.324774 C148.334759,124.124587 148.504266,123.630425 148.305723,123.219806 C148.106395,122.809187 147.613569,122.638949 147.205496,122.838348 C144.986209,123.923612 142.74024,124.780317 140.492702,125.441563 C140.056378,125.570029 139.806826,126.029513 139.934741,126.467717 C140.061871,126.905133 140.519383,127.156548 140.955707,127.028082 Z M154.342058,120.477879 C154.669301,120.242226 154.995759,120.000268 155.319863,119.752793 C157.070651,118.419266 158.666058,117.094408 160.116286,115.781373 C160.45373,115.475576 160.480412,114.953041 160.175927,114.614142 C159.871442,114.275244 159.35115,114.247659 159.013705,114.553456 C157.601146,115.83339 156.041053,117.128298 154.325578,118.435817 C154.012461,118.674622 153.697774,118.907911 153.382303,119.134894 C153.013468,119.401284 152.928715,119.917514 153.193962,120.287938 C153.458424,120.65915 153.972439,120.744269 154.342058,120.477879 Z M165.312933,110.422044 C167.077847,108.314566 168.484913,106.247284 169.577292,104.233595 C169.794669,103.832433 169.647135,103.33039 169.24848,103.112077 C168.84904,102.893763 168.349151,103.041932 168.131773,103.443094 C167.097466,105.350385 165.75475,107.326243 164.053402,109.358059 C163.760688,109.707204 163.806204,110.22895 164.15385,110.522137 C164.501497,110.816112 165.02022,110.771188 165.312933,110.422044 Z M172.243105,97.1348485 C172.549944,95.6626093 172.691985,94.2345057 172.691985,92.8607836 C172.691985,91.6990702 172.590751,90.5751874 172.401625,89.4962284 C172.322365,89.0469905 171.896243,88.7467104 171.448148,88.8255241 C171.000838,88.9043378 170.701846,89.3330841 170.780322,89.7831101 C170.952968,90.769069 171.046354,91.796011 171.046354,92.8607836 C171.046354,94.1202259 170.916084,95.4332615 170.632788,96.7967378 C170.539402,97.2436113 170.825053,97.6810271 171.269224,97.7748154 C171.71418,97.8686036 172.150504,97.5817219 172.243105,97.1348485 Z M169.622023,82.3738378 C168.163948,80.0835128 166.325267,78.2077476 164.393201,76.8174746 C164.023581,76.5518726 163.509566,76.6369913 163.245104,77.0082037 C162.980642,77.379416 163.065395,77.8956455 163.435015,78.1612475 C165.199144,79.4301475 166.897354,81.1608955 168.235361,83.263644 C168.480205,83.6482547 168.988726,83.7609582 169.371686,83.5150596 C169.754647,83.269161 169.866867,82.7576603 169.622023,82.3738378 Z M156.81953,75.0165824 C154.262798,75.5343882 151.972883,77.1327293 150.417498,79.461673 C150.164807,79.8407667 150.265256,80.3546317 150.642723,80.6084117 C151.02019,80.8629799 151.531851,80.7613102 151.784542,80.3822165 C153.11941,78.3842902 155.049907,77.0602207 157.144418,76.6369913 C157.590159,76.5463556 157.878164,76.1105161 157.788702,75.6636426 C157.698456,75.215981 157.264486,74.9259467 156.81953,75.0165824 Z M148.315925,86.921386 C148.34496,89.2322026 148.90763,91.7510872 150.135771,94.3692771 C150.328821,94.7822607 150.819293,94.9595914 151.230505,94.7649216 C151.641716,94.5702519 151.818286,94.0784547 151.624452,93.6654711 C150.487342,91.2387984 149.988237,88.9571429 149.961556,86.9001064 C149.955278,86.4437752 149.582519,86.078868 149.128146,86.0843232 C148.673773,86.09069 148.309647,86.4650549 148.315925,86.921386 Z M154.522552,100.599497 C156.16269,102.183652 158.207762,103.695298 160.595771,105.067443 C160.990503,105.293639 161.492746,105.156503 161.718755,104.76007 C161.94398,104.363638 161.807433,103.85923 161.412701,103.632247 C159.125925,102.319211 157.18758,100.880862 155.662801,99.4078345 C155.335558,99.0917917 154.814481,99.1020374 154.499794,99.4306904 C154.184323,99.7601315 154.194524,100.283454 154.522552,100.599497 Z M167.383117,108.209744 C169.611037,109.030194 172.007678,109.731636 174.545576,110.279391 C174.989748,110.375544 175.427641,110.091026 175.523381,109.644941 C175.619121,109.198856 175.335824,108.759075 174.891653,108.662923 C172.427522,108.131719 170.103863,107.450769 167.94971,106.657903 C167.522804,106.500276 167.050381,106.720954 166.894215,107.148912 C166.737264,107.577659 166.95621,108.052905 167.383117,108.209744 Z M181.908932,111.375689 C183.56712,111.515977 185.266899,111.590062 187.001993,111.590062 C187.776546,111.590062 188.558162,111.575876 189.346056,111.545138 C189.800429,111.527799 190.154353,111.143977 190.137089,110.688434 C190.119824,110.232103 189.737649,109.876653 189.28406,109.893992 C188.51657,109.923153 187.756142,109.93734 187.001993,109.93734 C185.3132,109.93734 183.659721,109.865619 182.047049,109.729272 C181.594246,109.690653 181.196375,110.027975 181.157922,110.483518 C181.120254,110.938273 181.456129,111.337858 181.908932,111.375689 Z M196.74708,110.8169 C199.131951,110.438595 201.556844,109.912907 204.009988,109.224864 C204.447881,109.102703 204.702927,108.646372 204.58129,108.206592 C204.458868,107.7676 204.004495,107.510667 203.567386,107.632828 C201.176238,108.303532 198.81334,108.815821 196.490465,109.184669 C196.041586,109.255601 195.734746,109.678831 195.806159,110.129645 C195.876787,110.580459 196.2982,110.888621 196.74708,110.8169 Z M211.042178,106.817895 C213.276375,105.911538 215.521559,104.862528 217.769098,103.659043 C218.170108,103.44467 218.321565,102.943415 218.108112,102.540678 C217.893874,102.13794 217.395554,101.985829 216.994544,102.200202 C214.7988,103.37689 212.606194,104.40068 210.426145,105.284969 C210.004732,105.455995 209.80148,105.937546 209.970987,106.360776 C210.141279,106.784005 210.620764,106.988921 211.042178,106.817895 Z M224.132676,99.8271231 C226.129878,98.4865028 228.120016,97.0158398 230.099168,95.4056767 C230.452308,95.1180069 230.506456,94.5978367 230.220021,94.2431752 C229.93437,93.8885137 229.415647,93.8341323 229.062507,94.121014 C227.122593,95.6996517 225.172477,97.1411535 223.218437,98.4526129 C222.840969,98.7063929 222.738951,99.2194698 222.991642,99.5993517 C223.244333,99.9784454 223.755209,100.080903 224.132676,99.8271231 Z M235.65131,90.4798229 C237.380126,88.8137021 239.094815,87.0317252 240.789886,85.1291634 C241.093586,84.7894765 241.06455,84.2669419 240.725536,83.961933 C240.387307,83.6577123 239.867014,83.6868734 239.564099,84.0273484 C237.89571,85.8991728 236.210056,87.6504124 234.511846,89.2873722 C234.183818,89.6034149 234.172832,90.1267377 234.487519,90.4561788 C234.802205,90.7856199 235.323283,90.7958656 235.65131,90.4798229 L235.65131,90.4798229 Z" id="Fill-28" fill="#F47952"></path>
                <path d="M364.367428,62.7280288 C364.278376,63.50391 364.179169,64.275089 364.069807,65.0407819 C363.834679,66.682672 363.551119,68.3010506 363.21444,69.8872967 C363.11992,70.331665 363.401918,70.7681962 363.844052,70.8630261 C364.286968,70.9570724 364.722073,70.67415 364.816593,70.2305654 C365.161864,68.6043496 365.451673,66.94992 365.691489,65.27433 C365.803194,64.4929627 365.903963,63.7061094 365.994577,62.9161212 C366.046134,62.4646994 365.724297,62.0571658 365.274351,62.0054404 C364.825186,61.9537149 364.418984,62.2766069 364.367428,62.7280288 Z M361.293575,76.8522024 C360.49367,79.1539835 359.542221,81.3577997 358.416574,83.4409233 C358.200975,83.8406197 358.348614,84.3390647 358.746222,84.555371 C359.143831,84.7716773 359.641428,84.6235545 359.857028,84.2246418 C361.028763,82.0553091 362.014583,79.7699862 362.840266,77.3929682 C362.989467,76.9642742 362.763712,76.4956106 362.33642,76.346704 C361.909127,76.1970138 361.442776,76.4235085 361.293575,76.8522024 Z M354.437361,89.3815091 C352.943789,91.1918987 351.254928,92.8620027 349.346561,94.3730118 C348.991135,94.6543667 348.930205,95.1708372 349.21064,95.5274291 C349.491075,95.884021 350.005858,95.945151 350.361284,95.6637961 C352.361827,94.0799011 354.135053,92.3259393 355.699711,90.4293407 C355.987957,90.0798022 355.939526,89.5617643 355.59113,89.2725722 C355.242734,88.9833801 354.726389,89.0319707 354.437361,89.3815091 Z M343.328529,98.2077461 C341.301426,99.235201 339.091534,100.127856 336.680883,100.871605 C336.248904,101.004837 336.005964,101.464096 336.138761,101.898276 C336.271557,102.332456 336.730096,102.575409 337.162076,102.442177 C339.655529,101.673349 341.952911,100.74621 344.066722,99.6748671 C344.47058,99.4703165 344.633061,98.9757902 344.429179,98.5706078 C344.225297,98.1654253 343.732387,98.0031956 343.328529,98.2077461 Z M329.677031,102.501739 C327.517913,102.858331 325.229904,103.116175 322.805974,103.267432 C322.704424,103.273702 322.603655,103.279972 322.502104,103.286242 C322.050596,103.312104 321.706106,103.700829 321.731884,104.153818 C321.758443,104.606807 322.145897,104.953211 322.597406,104.926564 C322.700518,104.921078 322.803631,104.914809 322.907525,104.908539 C325.383011,104.753363 327.726482,104.490033 329.944186,104.123253 C330.390227,104.049583 330.692535,103.626375 330.619106,103.178872 C330.545677,102.730585 330.123852,102.427286 329.677812,102.501739 L329.677031,102.501739 Z M315.272497,103.356776 C312.932932,103.272135 310.605085,103.088745 308.286611,102.826199 C308.207714,102.817578 308.128817,102.808173 308.050702,102.799552 C307.600755,102.747043 307.194554,103.070719 307.142997,103.522141 C307.091441,103.972779 307.414059,104.380313 307.863224,104.432038 C307.942902,104.441443 308.023361,104.450847 308.103039,104.459468 C310.458227,104.725932 312.827476,104.912457 315.213911,104.99945 C315.665419,105.015908 316.045061,104.660884 316.061466,104.207895 C316.07787,103.754122 315.724787,103.373234 315.272497,103.356776 Z M300.868745,101.737614 C298.572925,101.330864 296.282573,100.866903 293.994564,100.365323 C293.55243,100.268142 293.115763,100.549497 293.018899,100.993081 C292.922817,101.435882 293.202471,101.873981 293.644606,101.971162 C295.949019,102.47666 298.261243,102.945324 300.583623,103.356776 C301.028882,103.435148 301.453832,103.137335 301.532728,102.689832 C301.611625,102.243112 301.314005,101.81677 300.868745,101.737614 L300.868745,101.737614 Z" id="Fill-29" fill="#F47952"></path>
                <path d="M407.046151,51.1773508 C404.592147,51.5752155 402.18279,51.9357074 399.818863,52.2588264 C399.369262,52.3203358 399.055169,52.7322153 399.117047,53.1791318 C399.178926,53.6260482 399.593279,53.9382669 400.04288,53.8767575 C402.420906,53.5520812 404.843579,53.1892536 407.310899,52.7890531 C407.758149,52.7158647 408.06206,52.2969778 407.989216,51.8516185 C407.916371,51.4062593 407.494185,51.104941 407.046151,51.1773508 Z M392.568076,53.1487664 C390.089007,53.4166048 387.664768,53.6408416 385.296924,53.8199197 C384.84419,53.8541781 384.505815,54.2465925 384.540279,54.6958448 C384.574743,55.1458757 384.968731,55.4822309 385.421465,55.4479725 C387.808107,55.2673373 390.249579,55.0423218 392.74588,54.7721476 C393.196263,54.7230958 393.522106,54.3205595 393.473543,53.8720859 C393.424197,53.4236122 393.019243,53.1004931 392.568076,53.1487664 Z M378.010106,54.2395851 C375.789519,54.3244525 373.62376,54.3672755 371.514398,54.3672755 C371.248084,54.3672755 370.982553,54.3664969 370.718589,54.3649397 C370.265072,54.3626039 369.895366,54.7262102 369.893005,55.1777983 C369.890666,55.6286077 370.256456,55.996107 370.709973,55.9984428 C370.97707,55.9992214 371.244951,56 371.514398,56 C373.646475,56 375.833382,55.957177 378.074335,55.8707524 C378.527069,55.8536232 378.880326,55.4736663 378.863094,55.0236354 C378.845079,54.572826 378.463623,54.2216773 378.010106,54.2395851 Z M363.436471,54.1445959 C360.927638,54.0005549 358.511231,53.7879971 356.188817,53.5069224 C355.738434,53.4524204 355.32878,53.7716464 355.273951,54.2193415 C355.219122,54.6670366 355.540265,55.0734659 355.989865,55.1279679 C358.349876,55.4137141 360.800747,55.6293863 363.341695,55.774206 C363.795212,55.8006784 364.182933,55.4565371 364.208781,55.0065062 C364.235413,54.5564754 363.889205,54.1702897 363.436471,54.1445959 Z M349.017925,52.3623802 C347.281402,52.0120102 345.608324,51.6157027 344.001041,51.175015 C343.321158,50.988151 342.653806,50.793501 341.997421,50.5910649 C341.564269,50.4579243 341.103703,50.6985118 340.969763,51.1290776 C340.835039,51.5596435 341.077072,52.0174604 341.510223,52.150601 C342.183057,52.3584872 342.867641,52.5578089 343.56319,52.7485659 C345.209636,53.2009326 346.919528,53.605026 348.691299,53.9631821 C349.135416,54.0527211 349.569351,53.7669748 349.659428,53.3255086 C349.749505,52.8832637 349.462825,52.4526978 349.017925,52.3623802 Z M335.251847,48.0427067 C332.97643,47.0017184 330.888999,45.8345968 328.992688,44.545235 C328.618282,44.2906328 328.107586,44.385622 327.851455,44.7577928 C327.595323,45.1299637 327.690883,45.6383896 328.065289,45.8929918 C330.043844,47.2384128 332.212736,48.4499146 334.565697,49.52594 C334.977701,49.7143612 335.465682,49.5352832 335.655234,49.1257395 C335.844787,48.7161959 335.664634,48.231128 335.251847,48.0427067 Z M323.540303,39.9616161 C321.881324,38.226895 320.461245,36.3403469 319.280064,34.299636 C319.054481,33.9087787 318.552401,33.7740809 318.159196,33.9990963 C317.765991,34.2241118 317.630485,34.7231945 317.856068,35.1140517 C319.103044,37.2684383 320.603801,39.260876 322.350507,41.0866933 C322.663034,41.4137053 323.182346,41.4269415 323.511322,41.1155015 C323.840298,40.80484 323.853613,40.2886281 323.540303,39.9616161 Z M316.485335,27.7913176 C316.370193,27.4074677 316.262101,27.0197248 316.160275,26.6273104 C315.807018,25.2678746 315.64253,23.968391 315.64253,22.7288596 C315.64253,22.1199943 315.682477,21.5251438 315.759238,20.9450867 C315.818767,20.4973916 315.502324,20.0878479 315.052723,20.0286743 C314.603123,19.9695007 314.190336,20.2840552 314.130807,20.7309716 C314.044647,21.38266 314,22.0491417 314,22.7288596 C314,24.112432 314.18407,25.5505064 314.569442,27.0352968 C314.675967,27.4463977 314.789542,27.8536056 314.910167,28.2569204 C315.039407,28.6890435 315.496841,28.9350811 315.931559,28.8066121 C316.366277,28.6781431 316.614576,28.2242192 316.485335,27.7913176 Z M318.344833,14.6501047 C319.665436,12.8515384 321.423108,11.2725374 323.490173,9.95592455 C323.872412,9.71222271 323.983637,9.20768983 323.738472,8.82773297 C323.49409,8.44855471 322.985743,8.3379935 322.604288,8.58091674 C320.391533,9.99096156 318.477989,11.6992102 317.017963,13.6869763 C316.750866,14.0513612 316.83076,14.5621229 317.197333,14.8276255 C317.563123,15.0939068 318.076952,15.0144895 318.344833,14.6501047 Z M329.931836,7.00113709 C332.092111,6.31986198 334.382411,5.85970931 336.712657,5.64247987 L336.635896,4.82962134 L336.685242,5.64481567 C336.75887,5.64014407 336.831715,5.63547247 336.905343,5.63157947 C337.358077,5.60744287 337.705851,5.22281441 337.68157,4.77278354 C337.656505,4.32275267 337.269566,3.97705421 336.816833,4.00119081 C336.740072,4.00508382 336.663311,4.00975542 336.585766,4.01442702 L336.558352,4.01676282 C334.113747,4.24489265 331.710656,4.72684613 329.435239,5.44393684 C329.00287,5.58019186 328.763188,6.03956594 328.901045,6.4693532 C329.038118,6.89914047 329.499467,7.13739211 329.931836,7.00113709 Z M343.949345,6.16647776 C346.378284,6.70994064 348.520544,7.61467398 350.423122,8.79970337 C350.807711,9.03873361 351.31449,8.92350079 351.555739,8.54120813 C351.796205,8.15891547 351.68028,7.65516119 351.295692,7.41613095 C349.241158,6.13533375 346.918745,5.1566334 344.309652,4.5734619 C343.867101,4.47457969 343.427683,4.75098273 343.328207,5.1908918 C343.228731,5.63080087 343.506794,6.06759554 343.949345,6.16647776 Z M355.698487,13.4206951 C357.20786,15.2091396 358.489299,17.2218209 359.573353,19.3606354 C359.777788,19.7631717 360.272036,19.9251205 360.676989,19.7219059 C361.081943,19.5194699 361.244865,19.0281732 361.04043,18.6256369 C359.908596,16.3933904 358.562144,14.2732622 356.957211,12.3711421 C356.665049,12.0262223 356.147304,11.9810635 355.799529,12.2707027 C355.452538,12.560342 355.407108,13.0749966 355.698487,13.4206951 Z M362.255291,26.0020945 C362.999403,28.3417878 363.571978,30.7056178 364.012962,32.985359 C364.098339,33.4276038 364.529141,33.7180217 364.974042,33.6331543 C365.419726,33.5475083 365.711105,33.1200568 365.625728,32.6770333 C365.175344,30.3459046 364.58867,27.9213438 363.821843,25.5100192 C363.685553,25.0802319 363.22342,24.8419803 362.791052,24.9774567 C362.358683,25.1137117 362.119001,25.5723072 362.255291,26.0020945 Z M365.046887,40.1344653 C365.351581,43.1912494 365.440091,45.738829 365.466723,47.3614316 C365.473772,47.8122411 365.847395,48.1719544 366.300912,48.1641684 C366.754429,48.157161 367.116302,47.7857687 367.109253,47.3349592 C367.081838,45.680434 366.991761,43.0876956 366.681584,39.9732951 C366.636937,39.5248214 366.234333,39.1970308 365.783166,39.241411 C365.331999,39.2857912 365.00224,39.6859916 365.046887,40.1344653 L365.046887,40.1344653 Z" id="Fill-30" fill="#F47952"></path>
                <path d="M459.893466,19.0013476 L458.490192,14 L453.353768,21.0366336 L453.353768,23.9791115 L438.410943,42.5820493 L438.167888,42.4491937 C437.657391,42.169332 437.076889,42.0215399 436.491667,42.0215399 C434.566885,42.0215399 433,43.5867212 433,45.5103769 C433,47.4340326 434.566885,49 436.491667,49 C438.417236,49 439.982548,47.4340326 439.982548,45.5103769 C439.982548,44.8633934 439.800846,44.2289879 439.457893,43.6755537 L439.321026,43.4577961 L455.946364,26.0914379 L458.675041,25.7408248 L465,19.7473833 L459.893466,19.0013476" id="Fill-31" fill="#F47952"></path>
                <path d="M450.301355,33.9400741 C453.069615,37.0011767 454.757826,41.0574687 454.757826,45.5 C454.757826,55.0158164 447.01682,62.7577352 437.499611,62.7577352 C427.983959,62.7577352 420.242174,55.0158164 420.242174,45.5 C420.242174,35.9841836 427.983959,28.2422648 437.499611,28.2422648 C441.19919,28.2422648 444.627784,29.4165571 447.44043,31.406157 L450.725744,27.3132657 C447.01059,24.6041393 442.44043,23 437.499611,23 C425.092665,23 415,33.0936181 415,45.5 C415,57.9071607 425.092665,68 437.499611,68 C449.906557,68 460,57.9071607 460,45.5 C460,39.5701357 457.690391,34.1721292 453.928516,30.148543 L450.301355,33.9400741" id="Fill-32" fill="#2B5D8F"></path>
                <path d="M444.070619,40.4311895 C445.157309,41.8354886 445.810864,43.5920185 445.810864,45.4996146 C445.810864,50.0824698 442.081438,53.8113385 437.499615,53.8113385 C432.917021,53.8113385 429.189907,50.0824698 429.189907,45.4996146 C429.189907,40.9175302 432.917021,37.1886615 437.499615,37.1886615 C439.08649,37.1886615 440.564696,37.6434016 441.825564,38.4180012 L445.093341,34.347692 C442.927668,32.8678599 440.314218,32 437.499615,32 C430.056176,32 424,38.0565214 424,45.4996146 C424,52.9442494 430.056176,59 437.499615,59 C444.943054,59 451,52.9442494 451,45.4996146 C451,42.1183523 449.741444,39.0315149 447.679816,36.6607005 L444.070619,40.4311895" id="Fill-33" fill="#2B5D8F"></path>
                <path d="M90.9511081,84.2592881 C90.4479942,75.7519938 83.3168675,69 74.5683638,69 C65.4925995,69 58.135939,76.25851 58.135939,85.21241 L58.135939,88.0608831 L52,94.1141801 L58.135939,100.167477 L58.135939,102.491539 C58.135939,109.063023 62.1056495,114.707839 67.801561,117.254425 L67.801561,121 L91,121 L91,84.2592881 L90.9511081,84.2592881" id="Fill-34" fill="#2B5D8F"></path>
                <path d="M88,86.5003957 C88,93.9561216 81.9553302,100 74.4996043,100 C67.043087,100 61,93.9561216 61,86.5003957 C61,79.0446698 67.043087,73 74.4996043,73 C81.9553302,73 88,79.0446698 88,86.5003957" id="Fill-35" fill="#FCDFD7"></path>
                <path d="M79.2953471,85.2973404 L75.7026596,85.2973404 L75.7026596,81.7038556 C75.7026596,80.7630275 74.9404294,80 73.9996013,80 C73.0587733,80 72.2957458,80.7630275 72.2957458,81.7038556 L72.2957458,85.2973404 L68.7014636,85.2973404 C67.7622302,85.2973404 67,86.0595706 67,87.0003987 C67,87.9412267 67.7622302,88.7034569 68.7014636,88.7034569 L72.2957458,88.7034569 L72.2957458,92.2977391 C72.2957458,93.2385671 73.0587733,94 73.9996013,94 C74.9404294,94 75.7026596,93.2385671 75.7026596,92.2977391 L75.7026596,88.7034569 L79.2953471,88.7034569 C80.2361752,88.7034569 81,87.9412267 81,87.0003987 C81,86.0595706 80.2361752,85.2973404 79.2953471,85.2973404" id="Fill-36" fill="#F47952"></path>
                <path d="M100.90921,157 C100.90921,157.551923 100.548836,158 100.104942,158 L97.8042688,158 C97.3603743,158 97,157.551923 97,157 C97,156.447115 97.3603743,156 97.8042688,156 L100.104942,156 C100.548836,156 100.90921,156.447115 100.90921,157 Z M108.954992,157 C108.954992,157.551923 108.595391,158 108.14995,158 L104.127832,158 C103.683164,158 103.32279,157.551923 103.32279,157 C103.32279,156.447115 103.683164,156 104.127832,156 L108.14995,156 C108.595391,156 108.954992,156.447115 108.954992,157 Z M117,157 C117,157.551923 116.639626,158 116.195731,158 L112.173614,158 C111.728173,158 111.368572,157.551923 111.368572,157 C111.368572,156.447115 111.728173,156 112.173614,156 L116.195731,156 C116.639626,156 117,156.447115 117,157 L117,157 Z" id="Fill-37" fill="#2B5D8F"></path>
                <path d="M498.909833,203.999519 C498.909833,204.552138 498.549472,205 498.104822,205 L495.805784,205 C495.36036,205 495,204.552138 495,203.999519 C495,203.446901 495.36036,203 495.805784,203 L498.104822,203 C498.549472,203 498.909833,203.446901 498.909833,203.999519 Z M506.95453,203.999519 C506.95453,204.552138 506.594943,205 506.150292,205 L502.127557,205 C501.683679,205 501.323319,204.552138 501.323319,203.999519 C501.323319,203.446901 501.683679,203 502.127557,203 L506.150292,203 C506.594943,203 506.95453,203.446901 506.95453,203.999519 Z M515,203.999519 C515,204.552138 514.63964,205 514.195762,205 L510.173027,205 C509.728376,205 509.368789,204.552138 509.368789,203.999519 C509.368789,203.446901 509.728376,203 510.173027,203 L514.195762,203 C514.63964,203 515,203.446901 515,203.999519 L515,203.999519 Z" id="Fill-38" fill="#2B5D8F"></path>
                <path d="M343.26542,24.5 C343.26542,23.5264349 342.473565,22.7345797 341.500834,22.7345797 C340.526435,22.7345797 339.733746,23.5264349 339.733746,24.5 C339.733746,25.4735651 340.526435,26.2654203 341.500834,26.2654203 C342.473565,26.2654203 343.26542,25.4735651 343.26542,24.5 Z M345,24.5 C345,26.4296261 343.43046,28 341.500834,28 C339.570374,28 338,26.4296261 338,24.5 C338,22.5703739 339.570374,21 341.500834,21 C343.43046,21 345,22.5703739 345,24.5 L345,24.5 Z" id="Fill-39" fill="#2B5D8F"></path>
                <path d="M106.1957,17 L87.8042999,17 C87.3603882,17 87,17.4478616 87,17.9995195 C87,18.5521384 87.3603882,19 87.8042999,19 L106.1957,19 C106.639612,19 107,18.5521384 107,17.9995195 C107,17.4478616 106.639612,17 106.1957,17" id="Fill-40" fill="#2B5D8F"></path>
                <path d="M81.2271106,17 L77.7728894,17 C77.3463139,17 77,17.4480769 77,18 C77,18.5528846 77.3463139,19 77.7728894,19 L81.2271106,19 C81.6536861,19 82,18.5528846 82,18 C82,17.4480769 81.6536861,17 81.2271106,17" id="Fill-41" fill="#2B5D8F"></path>
                <path d="M82.6314284,24 C82.6314284,24.5528846 82.2710541,25 81.8271595,25 L77.8042688,25 C77.3603743,25 77,24.5528846 77,24 C77,23.4480769 77.3603743,23 77.8042688,23 L81.8271595,23 C82.2710541,23 82.6314284,23.4480769 82.6314284,24 Z M90.6772098,24 C90.6772098,24.5528846 90.3168355,25 89.872941,25 L85.8492769,25 C85.4053824,25 85.0450081,24.5528846 85.0450081,24 C85.0450081,23.4480769 85.4053824,23 85.8492769,23 L89.872941,23 C90.3168355,23 90.6772098,23.4480769 90.6772098,24 Z M97,24 C97,24.5528846 96.640399,25 96.1949579,25 L93.8950584,25 C93.4511639,25 93.0907896,24.5528846 93.0907896,24 C93.0907896,23.4480769 93.4511639,23 93.8950584,23 L96.1949579,23 C96.640399,23 97,23.4480769 97,24 L97,24 Z" id="Fill-42" fill="#2B5D8F"></path>
                <path d="M391,86 C390.448077,86 390,86.414683 390,86.9263626 L390,89.0736374 C390,89.585317 390.448077,90 391,90 C391.551923,90 392,89.585317 392,89.0736374 L392,86.9263626 C392,86.414683 391.551923,86 391,86" id="Fill-43" fill="#2B5D8F"></path>
                <path d="M388.074115,84 L385.925885,84 C385.414868,84 385,84.4469005 385,84.9995195 C385,85.5521384 385.414868,86 385.925885,86 L388.074115,86 C388.585132,86 389,85.5521384 389,84.9995195 C389,84.4469005 388.585132,84 388.074115,84" id="Fill-44" fill="#2B5D8F"></path>
                <path d="M391,80 C390.448077,80 390,80.4140695 390,80.9260908 L390,83.0739092 C390,83.5850401 390.448077,84 391,84 C391.551923,84 392,83.5850401 392,83.0739092 L392,80.9260908 C392,80.4140695 391.551923,80 391,80" id="Fill-45" fill="#2B5D8F"></path>
                <path d="M395.074321,84 L392.925679,84 C392.413885,84 392,84.4471154 392,85 C392,85.5519231 392.413885,86 392.925679,86 L395.074321,86 C395.585225,86 396,85.5519231 396,85 C396,84.4471154 395.585225,84 395.074321,84" id="Fill-46" fill="#2B5D8F"></path>
                <path d="M117,86.9995917 C117,88.6574112 118.343223,90 120,90 C121.656777,90 123,88.6574112 123,86.9995917 C123,85.3434055 121.656777,84 120,84 C118.343223,84 117,85.3434055 117,86.9995917" id="Fill-47" fill="#2B5D8F"></path>
                <path d="M460.8043,86 L479.1957,86 C479.639612,86 480,85.5519231 480,85 C480,84.4471154 479.639612,84 479.1957,84 L460.8043,84 C460.359615,84 460,84.4471154 460,85 C460,85.5519231 460.359615,86 460.8043,86" id="Fill-48" fill="#2B5D8F"></path>
                <path d="M485.772889,86 L489.227111,86 C489.653686,86 490,85.5528846 490,85 C490,84.4471154 489.653686,84 489.227111,84 L485.772889,84 C485.346314,84 485,84.4471154 485,85 C485,85.5528846 485.346314,86 485.772889,86" id="Fill-49" fill="#2B5D8F"></path>
                <path d="M484.368789,78.9995195 C484.368789,78.4478616 484.728376,78 485.173027,78 L489.195762,78 C489.63964,78 490,78.4478616 490,78.9995195 C490,79.5521384 489.63964,80 489.195762,80 L485.173027,80 C484.728376,80 484.368789,79.5521384 484.368789,78.9995195 Z M476.323319,78.9995195 C476.323319,78.4478616 476.683679,78 477.127557,78 L481.150292,78 C481.594943,78 481.95453,78.4478616 481.95453,78.9995195 C481.95453,79.5521384 481.594943,80 481.150292,80 L477.127557,80 C476.683679,80 476.323319,79.5521384 476.323319,78.9995195 Z M470,78.9995195 C470,78.4478616 470.36036,78 470.805011,78 L473.105595,78 C473.549472,78 473.909833,78.4478616 473.909833,78.9995195 C473.909833,79.5521384 473.549472,80 473.105595,80 L470.805011,80 C470.36036,80 470,79.5521384 470,78.9995195 L470,78.9995195 Z" id="Fill-50" fill="#2B5D8F"></path>
                <path d="M411,4 C411.552354,4 412,3.58522474 412,3.07343124 L412,0.925678683 C412,0.41388518 411.552354,0 411,0 C410.447646,0 410,0.41388518 410,0.925678683 L410,3.07343124 C410,3.58522474 410.447646,4 411,4" id="Fill-51" fill="#2B5D8F"></path>
                <path d="M412.926775,6 L415.074115,6 C415.586023,6 416,5.55288462 416,5 C416,4.44711538 415.586023,4 415.074115,4 L412.926775,4 C412.414868,4 412,4.44711538 412,5 C412,5.55288462 412.414868,6 412.926775,6" id="Fill-52" fill="#2B5D8F"></path>
                <path d="M411,10 C411.552354,10 412,9.58593054 412,9.07390917 L412,6.92609083 C412,6.41495993 411.552354,6 411,6 C410.447646,6 410,6.41495993 410,6.92609083 L410,9.07390917 C410,9.58593054 410.447646,10 411,10" id="Fill-53" fill="#2B5D8F"></path>
                <path d="M406.925679,6 L409.074321,6 C409.585225,6 410,5.55288462 410,5 C410,4.44711538 409.585225,4 409.074321,4 L406.925679,4 C406.414775,4 406,4.44711538 406,5 C406,5.55288462 406.414775,6 406.925679,6" id="Fill-54" fill="#2B5D8F"></path>
                <path d="M52.1957001,180 L33.8042999,180 C33.3603882,180 33,180.447115 33,181 C33,181.551923 33.3603882,182 33.8042999,182 L52.1957001,182 C52.6396118,182 53,181.551923 53,181 C53,180.447115 52.6396118,180 52.1957001,180" id="Fill-55" fill="#2B5D8F"></path>
                <path d="M27.2269957,180 L23.7730043,180 C23.3463654,180 23,180.447862 23,181.000481 C23,181.552138 23.3463654,182 23.7730043,182 L27.2269957,182 C27.6543779,182 28,181.552138 28,181.000481 C28,180.447862 27.6543779,180 27.2269957,180" id="Fill-56" fill="#2B5D8F"></path>
                <path d="M28.6314284,187.000481 C28.6314284,187.552138 28.2710541,188 27.8271595,188 L23.8042688,188 C23.3603743,188 23,187.552138 23,187.000481 C23,186.447862 23.3603743,186 23.8042688,186 L27.8271595,186 C28.2710541,186 28.6314284,186.447862 28.6314284,187.000481 Z M36.6764365,187.000481 C36.6764365,187.552138 36.3168355,188 35.8721677,188 L31.8492769,188 C31.4053824,188 31.0450081,187.552138 31.0450081,187.000481 C31.0450081,186.447862 31.4053824,186 31.8492769,186 L35.8721677,186 C36.3168355,186 36.6764365,186.447862 36.6764365,187.000481 Z M43,187.000481 C43,187.552138 42.6396257,188 42.1949579,188 L39.8950584,188 C39.4503905,188 39.0907896,187.552138 39.0907896,187.000481 C39.0907896,186.447862 39.4503905,186 39.8950584,186 L42.1949579,186 C42.6396257,186 43,186.447862 43,187.000481 L43,187.000481 Z" id="Fill-57" fill="#2B5D8F"></path>
                <path d="M91.0004805,216 C90.4488227,216 90,216.414683 90,216.926363 L90,219.074527 C90,219.586207 90.4488227,220 91.0004805,220 C91.5521384,220 92,219.586207 92,219.074527 L92,216.926363 C92,216.414683 91.5521384,216 91.0004805,216" id="Fill-58" fill="#2B5D8F"></path>
                <path d="M89.0741153,215 L86.9258847,215 C86.4148676,215 86,215.447115 86,216 C86,216.552885 86.4148676,217 86.9258847,217 L89.0741153,217 C89.5851324,217 90,216.552885 90,216 C90,215.447115 89.5851324,215 89.0741153,215" id="Fill-59" fill="#2B5D8F"></path>
                <path d="M91.0004805,211 C90.4488227,211 90,211.413179 90,211.926091 L90,214.073909 C90,214.58504 90.4488227,215 91.0004805,215 C91.5521384,215 92,214.58504 92,214.073909 L92,211.926091 C92,211.413179 91.5521384,211 91.0004805,211" id="Fill-60" fill="#2B5D8F"></path>
                <path d="M95.0745273,214 L92.9263626,214 C92.414683,214 92,214.446901 92,215.000481 C92,215.552138 92.414683,216 92.9263626,216 L95.0745273,216 C95.585317,216 96,215.552138 96,215.000481 C96,214.446901 95.585317,214 95.0745273,214" id="Fill-61" fill="#2B5D8F"></path>
                <path d="M420.654147,175 C420.654147,175 421.28795,179.674118 416,179.56585 C416,179.56585 420.542254,179.614328 420.423318,184 C420.423318,184 420.831768,180.54996 425,179.779154 C425,179.779154 421.477308,180.612981 420.654147,175" id="Fill-62" fill="#2B5D8F"></path>
                <path d="M196.653365,1 C196.653365,1 197.287167,5.67408671 192,5.56664572 C192,5.56664572 196.541471,5.61430751 196.422535,10 C196.422535,10 196.830986,6.54977112 201,5.77910421 C201,5.77910421 197.477308,6.61358944 196.653365,1" id="Fill-63" fill="#2B5D8F"></path>
                <path d="M3.10253489,144 C3.10253489,144 3.52549131,146.595914 0,146.536381 C0,146.536381 3.02905155,146.563575 2.9478781,149 C2.9478781,149 3.22130447,147.083199 6,146.654711 C6,146.654711 3.65195101,147.117742 3.10253489,144" id="Fill-64" fill="#2B5D8F"></path>
                <path d="M328.102535,74 C328.102535,74 328.524637,76.5959136 325,76.537116 C325,76.537116 328.029052,76.5635749 327.947878,79 C327.947878,79 328.22045,77.0831986 331,76.6547112 C331,76.6547112 328.651097,77.1177422 328.102535,74" id="Fill-65" fill="#2B5D8F"></path>
                <path d="M421.278501,118.74055 C419.617257,118.74055 418.2659,120.086041 418.2659,121.740073 C418.2659,123.394105 419.617257,124.739596 421.278501,124.739596 L439.721499,124.739596 C441.381944,124.739596 442.7341,123.394105 442.7341,121.740073 C442.7341,120.086041 441.381944,118.74055 439.721499,118.74055 L437.592232,118.74055 L437.508371,118.209352 C437.187304,116.203043 435.273679,114.801887 433.142815,115.307639 L432.677187,115.418173 L432.443176,115.001484 C431.495149,113.310873 429.702923,112.261199 427.76374,112.261199 C424.809442,112.261199 422.407028,114.653183 422.407028,117.594656 C422.407028,117.750517 422.417411,117.903992 422.430989,118.055877 L422.490091,118.74055 L421.278501,118.74055 Z M439.721499,126 L421.278501,126 C418.919216,126 417,124.089116 417,121.740073 C417,119.436357 418.845737,117.554101 421.141927,117.481737 C421.203425,113.897736 424.149737,111 427.76374,111 C430.006419,111 432.09096,112.136352 433.309738,113.993956 C435.793617,113.640884 438.013932,115.197105 438.643288,117.479351 L439.721499,117.479351 C442.079986,117.479351 444,119.39103 444,121.740073 C444,124.089116 442.079986,126 439.721499,126 L439.721499,126 Z" id="Fill-66" fill="#2B5D8F"></path>
                <path d="M154.277829,32.7401654 C152.616536,32.7401654 151.265937,34.0857279 151.265937,35.7398473 C151.265937,37.3939667 152.616536,38.7395292 154.277829,38.7395292 L172.721373,38.7395292 C174.382665,38.7395292 175.733264,37.3939667 175.733264,35.7398473 C175.733264,34.0857279 174.382665,32.7401654 172.721373,32.7401654 L170.592841,32.7401654 L170.508179,32.2089386 C170.187901,30.2033188 168.27422,28.8012936 166.143292,29.3070724 L165.676853,29.4176121 L165.442834,29.0009013 C164.495578,27.3102004 162.7025,26.2604708 160.76326,26.2604708 C157.809673,26.2604708 155.40639,28.6533772 155.40639,31.5942106 C155.40639,31.7500795 155.417571,31.9035627 155.430351,32.0562507 L155.489454,32.7401654 L154.277829,32.7401654 Z M172.721373,40 L154.277829,40 C151.918474,40 150,38.089015 150,35.7398473 C150,33.4360089 151.844993,31.5536528 154.141251,31.4812851 C154.201952,27.8978899 157.149948,25 160.76326,25 C163.006804,25 165.091407,26.1356166 166.309422,27.9933199 C168.793374,27.640229 171.012957,29.1965327 171.642331,31.4796946 L172.721373,31.4796946 C175.080728,31.4796946 177,33.3906797 177,35.7398473 C177,38.089015 175.080728,40 172.721373,40 L172.721373,40 Z" id="Fill-67" fill="#2B5D8F"></path>
                <path d="M486.279173,32.7401654 C484.617979,32.7401654 483.265862,34.0857279 483.265862,35.7398473 C483.265862,37.3939667 484.617979,38.738734 486.279173,38.738734 L504.720827,38.738734 C506.38282,38.738734 507.733339,37.3939667 507.733339,35.7398473 C507.733339,34.0857279 506.38282,32.7401654 504.720827,32.7401654 L502.591623,32.7401654 L502.507765,32.2089386 C502.187506,30.2025236 500.275535,28.7973174 498.142337,29.3070724 L497.675925,29.4176121 L497.442719,29.0009013 C496.496317,27.3109957 494.702547,26.2604708 492.76422,26.2604708 C489.810808,26.2604708 487.407667,28.6533772 487.407667,31.5942106 C487.407667,31.7500795 487.417251,31.9035627 487.430828,32.0554554 L487.489928,32.7401654 L486.279173,32.7401654 Z M504.720827,40 L486.279173,40 C483.919957,40 482,38.089015 482,35.7398473 C482,33.4368042 483.846481,31.5536528 486.142604,31.4812851 C486.203301,27.8970947 489.149525,25 492.76422,25 C495.006833,25 497.092111,26.1356166 498.309255,27.9933199 C500.794658,27.6386385 503.013311,29.1965327 503.642648,31.4796946 L504.720827,31.4796946 C507.080841,31.4796946 509,33.3906797 509,35.7398473 C509,38.089015 507.080841,40 504.720827,40 L504.720827,40 Z" id="Fill-68" fill="#2B5D8F"></path>
                <path d="M43.1481154,42.6482095 L41.3514977,42.6482095 L41.3514977,40.8517905 C41.3514977,40.3814103 40.9700453,40 40.4996131,40 C40.0299547,40 39.6485023,40.3814103 39.6485023,40.8517905 L39.6485023,42.6482095 L37.8511109,42.6482095 C37.3806787,42.6482095 37,43.0296198 37,43.5 C37,43.9703802 37.3806787,44.3517905 37.8511109,44.3517905 L39.6485023,44.3517905 L39.6485023,46.1482095 C39.6485023,46.6185897 40.0299547,47 40.4996131,47 C40.9700453,47 41.3514977,46.6185897 41.3514977,46.1482095 L41.3514977,44.3517905 L43.1481154,44.3517905 C43.6177738,44.3517905 44,43.9703802 44,43.5 C44,43.0296198 43.6177738,42.6482095 43.1481154,42.6482095" id="Fill-69" fill="#2B5D8F"></path>
                <path d="M483.148115,149.648502 L481.351498,149.648502 L481.351498,147.851111 C481.351498,147.380679 480.970045,147 480.500387,147 C480.029181,147 479.647729,147.380679 479.647729,147.851111 L479.647729,149.648502 L477.851111,149.648502 C477.380679,149.648502 477,150.029181 477,150.499613 C477,150.970045 477.380679,151.351498 477.851111,151.351498 L479.647729,151.351498 L479.647729,153.148115 C479.647729,153.619321 480.029181,154 480.500387,154 C480.970045,154 481.351498,153.619321 481.351498,153.148115 L481.351498,151.351498 L483.148115,151.351498 C483.618548,151.351498 484,150.970045 484,150.499613 C484,150.029181 483.618548,149.648502 483.148115,149.648502" id="Fill-70" fill="#2B5D8F"></path>
                <path d="M360.147436,114.647729 L358.351017,114.647729 L358.351017,112.851111 C358.351017,112.381452 357.97038,112 357.5,112 C357.02962,112 356.64821,112.381452 356.64821,112.851111 L356.64821,114.647729 L354.85179,114.647729 C354.380637,114.647729 354,115.029955 354,115.499613 C354,115.970045 354.380637,116.351498 354.85179,116.351498 L356.64821,116.351498 L356.64821,118.148115 C356.64821,118.618548 357.02962,119 357.5,119 C357.97038,119 358.351017,118.618548 358.351017,118.148115 L358.351017,116.351498 L360.147436,116.351498 C360.617816,116.351498 361,115.970045 361,115.499613 C361,115.029955 360.617816,114.647729 360.147436,114.647729" id="Fill-71" fill="#2B5D8F"></path>
                <path d="M40,313 C58.5008818,312.774402 77.000196,312.67744 95.5002939,312.511959 L150.999804,312.233355 C169.500686,312.113122 188.000784,312.1351 206.500098,312.089851 L262.000392,312 L317.499902,312.088559 C336.000784,312.136393 354.500882,312.107951 373.000196,312.229476 L428.50049,312.509373 C447.000588,312.675501 465.500686,312.773109 484,313 C465.500686,313.226891 447.000588,313.324499 428.50049,313.490627 L373.000196,313.769877 C354.500882,313.892049 336.000784,313.864253 317.499902,313.911441 L262.000392,314 L206.500098,313.909502 C188.000784,313.8649 169.500686,313.886878 150.999804,313.766645 L95.5002939,313.488041 C77.000196,313.323206 58.5008818,313.224952 40,313" id="Fill-72" fill="#104478"></path>
                <path d="M141.822652,136 L382.177348,136 C385.945105,136 389,139.065729 389,142.846847 L389,293.153153 C389,296.935056 385.944322,300 382.177348,300 L141.822652,300 C138.054113,300 135,296.935056 135,293.153153 L135,142.846847 C135,139.065729 138.054113,136 141.822652,136" id="Fill-73" fill="#104478"></path>
                <path d="M275,142.500338 C275,143.328671 274.328671,144 273.500338,144 C272.671329,144 272,143.328671 272,142.500338 C272,141.671329 272.671329,141 273.500338,141 C274.328671,141 275,141.671329 275,142.500338" id="Fill-74" fill="#2B5D8F"></path>
                <path d="M252,142.500338 C252,143.328671 251.32852,144 250.500677,144 C249.67148,144 249,143.328671 249,142.500338 C249,141.671329 249.67148,141 250.500677,141 C251.32852,141 252,141.671329 252,142.500338" id="Fill-75" fill="#2B5D8F"></path>
                <path d="M267.048451,143 L256.950766,143 C256.425693,143 256,142.552448 256,142.000411 C256,141.447552 256.425693,141 256.950766,141 L267.048451,141 C267.574307,141 268,141.447552 268,142.000411 C268,142.552448 267.574307,143 267.048451,143" id="Fill-76" fill="#2B5D8F"></path>
                <path d="M145,301 L125,301 C125,298.791263 126.611404,297 128.600093,297 L141.399907,297 C143.387822,297 145,298.791263 145,301" id="Fill-77" fill="#2B5D8F"></path>
                <path d="M170,301 L150,301 C150,298.791263 151.612116,297 153.600728,297 L166.400046,297 C168.388659,297 170,298.791263 170,301" id="Fill-78" fill="#2B5D8F"></path>
                <path d="M196,301 L176,301 C176,298.791263 177.612178,297 179.600093,297 L192.400682,297 C194.388596,297 196,298.791263 196,301" id="Fill-79" fill="#2B5D8F"></path>
                <path d="M221,301 L201,301 C201,298.791263 202.611404,297 204.599318,297 L217.399907,297 C219.387822,297 221,298.791263 221,301" id="Fill-80" fill="#2B5D8F"></path>
                <path d="M247,301 L227,301 C227,298.791263 228.611341,297 230.599954,297 L243.399272,297 C245.387884,297 247,298.791263 247,301" id="Fill-81" fill="#2B5D8F"></path>
                <path d="M272,301 L252,301 C252,298.791263 253.612178,297 255.600093,297 L268.400682,297 C270.388596,297 272,298.791263 272,301" id="Fill-82" fill="#2B5D8F"></path>
                <path d="M298,301 L278,301 C278,298.791263 279.611404,297 281.599318,297 L294.399907,297 C296.387822,297 298,298.791263 298,301" id="Fill-83" fill="#2B5D8F"></path>
                <path d="M323,301 L303,301 C303,298.791263 304.611341,297 306.599954,297 L319.399272,297 C321.387884,297 323,298.791263 323,301" id="Fill-84" fill="#2B5D8F"></path>
                <path d="M349,301 L329,301 C329,298.791263 330.612178,297 332.600093,297 L345.399907,297 C347.388596,297 349,298.791263 349,301" id="Fill-85" fill="#2B5D8F"></path>
                <path d="M374,301 L354,301 C354,298.791263 355.612178,297 357.600093,297 L370.400682,297 C372.388596,297 374,298.791263 374,301" id="Fill-86" fill="#2B5D8F"></path>
                <path d="M400,301 L380,301 C380,298.791263 381.611341,297 383.599954,297 L396.399272,297 C398.387884,297 400,298.791263 400,301" id="Fill-87" fill="#2B5D8F"></path>
                <path d="M121.709294,313 L402.290706,313 C409.861674,313 416,306.732311 416,299 L108,299 C108,306.732311 114.137542,313 121.709294,313" id="Fill-88" fill="#2B5D8F"></path>
                <polygon id="Fill-89" fill="#104478" points="108 304 416 304 416 299 108 299"></polygon>
                <path d="M149.598437,148 L375.402346,148 C376.284539,148 377,148.716702 377,149.600426 L377,286.39879 C377,287.283298 376.284539,288 375.402346,288 L149.598437,288 C148.715461,288 148,287.283298 148,286.39879 L148,149.600426 C148,148.716702 148.715461,148 149.598437,148" id="Fill-90" fill="#F9F0E5"></path>
                <path d="M168,159.5 C168,160.32821 167.328007,161 166.499548,161 C165.671088,161 165,160.32821 165,159.5 C165,158.672694 165.671088,158 166.499548,158 C167.328007,158 168,158.672694 168,159.5" id="Fill-93" fill="#FFFDFF"></path>
                <path d="M173,159.5 C173,160.32821 172.328912,161 171.499548,161 C170.671088,161 170,160.32821 170,159.5 C170,158.672694 170.671088,158 171.499548,158 C172.328912,158 173,158.672694 173,159.5" id="Fill-94" fill="#FFFDFF"></path>
                <path d="M179,159.5 C179,160.32821 178.329114,161 177.5,161 C176.67179,161 176,160.32821 176,159.5 C176,158.672694 176.67179,158 177.5,158 C178.329114,158 179,158.672694 179,159.5" id="Fill-95" fill="#FFFDFF"></path>
                <g id="Group-105" transform="translate(228.000000, 264.000000)" fill="#104478">
                    <path d="M5.24863636,1.40109091 L0.887727273,1.40109091 C1.16263636,1.40109091 1.44,1.379 1.71163636,1.32827273 L6.07254545,1.32827273 C5.80090909,1.379 5.52354545,1.40109091 5.24863636,1.40109091" id="Fill-101"></path>
                </g>
            </g>
        </g>
    </g>
</svg>