<?xml version="1.0" encoding="UTF-8"?>
<svg width="40px" height="40px" viewBox="0 0 40 40" version="1.1" xmlns="http://www.w3.org/2000/svg" xmlns:xlink="http://www.w3.org/1999/xlink">
    <!-- Generator: Sketch 64 (93537) - https://sketch.com -->
    <title>Group 2</title>
    <desc>Created with Sketch.</desc>
    <g id="Page-1" stroke="none" stroke-width="1" fill="none" fill-rule="evenodd">
        <g id="Artboard" transform="translate(-299.000000, -305.000000)" fill="#000000" fill-rule="nonzero">
            <g id="Group-2" transform="translate(299.000000, 305.000000)">
                <g id="social-media">
                    <rect id="Rectangle" x="13.3333333" y="3.33333333" width="13.3333333" height="1.33333333"></rect>
                    <path d="M33,25 C33,23.7135 31.9530833,22.6666667 30.6666667,22.6666667 L29.3333333,22.6666667 L29.3333333,13.3333333 L28,13.3333333 L28,22.6666667 L26.3333333,22.6666667 C25.0468333,22.6666667 24,23.7135833 24,25 C24,25.6531667 24.2715,26.2426667 24.7055,26.6666667 C24.2715,27.0906667 24,27.6801667 24,28.3333333 C24,28.78275 24.13375,29.1991667 24.3549167,29.5556667 C23.5574167,29.9270833 23,30.7306667 23,31.6666667 C23,32.0259167 23.0884167,32.3624167 23.2340833,32.6666667 L18,32.6666667 C18,30.62825 16.9785,28.82425 15.4205833,27.7395833 C16.9270833,27.1653333 18,25.70575 18,24 C18,23.6318333 17.7018333,23.3333333 17.3333333,23.3333333 L12,23.3333333 L12,16.6666667 L10.6666667,16.6666667 L10.6666667,23.3333333 C9.56383333,23.3333333 8.66666667,24.2305 8.66666667,25.3333333 L8.66666667,40 L10,40 L10,25.3333333 C10,24.9658333 10.2988333,24.6666667 10.6666667,24.6666667 L16.582,24.6666667 C16.28575,25.8154167 15.2401667,26.6666667 14,26.6666667 L12,26.6666667 C11.6315,26.6666667 11.3333333,26.9651667 11.3333333,27.3333333 C11.3333333,27.7015 11.6315,28 12,28 C14.5729167,28 16.6666667,30.0934167 16.6666667,32.6666667 L16.6666667,33.3333333 C16.6666667,33.7015 16.9648333,34 17.3333333,34 L21.2340833,34 C21.0884167,34.30425 21,34.64075 21,35 C21,36.2865 22.0469167,37.3333333 23.3333333,37.3333333 L23.3333333,40 L24.6666667,40 L24.6666667,37.3333333 L27.3333333,37.3333333 L27.6666667,37.3333333 C28.9531667,37.3333333 30,36.2864167 30,35 C30,34.6369167 29.9094167,34.29725 29.76075,33.9905 C31.0028333,33.9398333 32,32.9209167 32,31.6666667 C32,31.21725 31.86625,30.8008333 31.6450833,30.4443333 C32.4425833,30.0729167 33,29.2693333 33,28.3333333 C33,27.6801667 32.7285,27.0906667 32.2945,26.6666667 C32.7285,26.2426667 33,25.6531667 33,25 Z M27.6666667,36 L27.3333333,36 L24,36 L23.3333333,36 C22.7819167,36 22.3333333,35.5514167 22.3333333,35 C22.3333333,34.4485833 22.7819167,34 23.3333333,34 L25.3333333,34 L27.6666667,34 C28.2180833,34 28.6666667,34.4485833 28.6666667,35 C28.6666667,35.5514167 28.2180833,36 27.6666667,36 Z M29.6666667,32.6666667 L27.6666667,32.6666667 L25.3333333,32.6666667 C24.7819167,32.6666667 24.3333333,32.2180833 24.3333333,31.6666667 C24.3333333,31.11525 24.7819167,30.6666667 25.3333333,30.6666667 L26.3333333,30.6666667 L29.6666667,30.6666667 C30.2180833,30.6666667 30.6666667,31.11525 30.6666667,31.6666667 C30.6666667,32.2180833 30.2180833,32.6666667 29.6666667,32.6666667 Z M30.6666667,29.3333333 L29.6666667,29.3333333 L26.3333333,29.3333333 C25.7819167,29.3333333 25.3333333,28.88475 25.3333333,28.3333333 C25.3333333,27.7819167 25.7819167,27.3333333 26.3333333,27.3333333 L30.6666667,27.3333333 C31.2180833,27.3333333 31.6666667,27.7819167 31.6666667,28.3333333 C31.6666667,28.88475 31.2180833,29.3333333 30.6666667,29.3333333 Z M30.6666667,26 L26.3333333,26 C25.7819167,26 25.3333333,25.5514167 25.3333333,25 C25.3333333,24.4485833 25.7819167,24 26.3333333,24 L30.6666667,24 C31.2180833,24 31.6666667,24.4485833 31.6666667,25 C31.6666667,25.5514167 31.2180833,26 30.6666667,26 Z" id="Shape"></path>
                    <path d="M24,7 L16,7 C14.8971667,7 14,7.89716667 14,9 L14,17 C14,18.1028333 14.8971667,19 16,19 L24,19 C25.1028333,19 26,18.1028333 26,17 L26,9 C26,7.89716667 25.1028333,7 24,7 Z M24.6666667,17 C24.6666667,17.3675 24.3678333,17.6666667 24,17.6666667 L16,17.6666667 C15.6321667,17.6666667 15.3333333,17.3675 15.3333333,17 L15.3333333,9 C15.3333333,8.6325 15.6321667,8.33333333 16,8.33333333 L24,8.33333333 C24.3678333,8.33333333 24.6666667,8.6325 24.6666667,9 L24.6666667,17 Z" id="Shape"></path>
                    <path d="M38,0 L30,0 C28.8971667,0 28,0.897166667 28,2 L28,10 C28,11.1028333 28.8971667,12 30,12 L38,12 C39.1028333,12 40,11.1028333 40,10 L40,2 C40,0.897166667 39.1028333,0 38,0 Z M38.6666667,10 C38.6666667,10.3675 38.3678333,10.6666667 38,10.6666667 L30,10.6666667 C29.6321667,10.6666667 29.3333333,10.3675 29.3333333,10 L29.3333333,2 C29.3333333,1.6325 29.6321667,1.33333333 30,1.33333333 L38,1.33333333 C38.3678333,1.33333333 38.6666667,1.6325 38.6666667,2 L38.6666667,10 Z" id="Shape"></path>
                    <path d="M10,3 L2,3 C0.897166667,3 0,3.89716667 0,5 L0,13 C0,14.1028333 0.897166667,15 2,15 L10,15 C11.1028333,15 12,14.1028333 12,13 L12,5 C12,3.89716667 11.1028333,3 10,3 Z M10.6666667,13 C10.6666667,13.3675 10.3678333,13.6666667 10,13.6666667 L2,13.6666667 C1.63216667,13.6666667 1.33333333,13.3675 1.33333333,13 L1.33333333,5 C1.33333333,4.6325 1.63216667,4.33333333 2,4.33333333 L10,4.33333333 C10.3678333,4.33333333 10.6666667,4.6325 10.6666667,5 L10.6666667,13 Z" id="Shape"></path>
                    <rect id="Rectangle" x="19.3333333" y="27.3333333" width="1.33333333" height="1.33333333"></rect>
                </g>
                <g id="slideshow" transform="translate(31.000000, 3.000000)">
                    <path d="M5.47680469,1.71428906 L0.265382813,1.71428906 C0.123351563,1.71428906 0.00823828125,1.82940234 0.00823828125,1.97143359 L0.00823828125,5.74286719 C0.00823828125,5.88489844 0.123351563,6.00001172 0.265382813,6.00001172 L5.47681641,6.00001172 C5.61884766,6.00001172 5.73396094,5.88489844 5.73396094,5.74286719 L5.73396094,1.97143359 C5.73396094,1.82940234 5.61883594,1.71428906 5.47680469,1.71428906 Z M5.21967187,5.48571094 L0.522527344,5.48571094 L0.522527344,2.22856641 L5.21967187,2.22856641 L5.21967187,5.48571094 L5.21967187,5.48571094 Z" id="Shape"></path>
                    <path d="M5.04823828,0.857144531 L0.693949219,0.857144531 C0.551917969,0.857144531 0.436804688,0.972257813 0.436804688,1.11428906 C0.436804688,1.25632031 0.551917969,1.37143359 0.693949219,1.37143359 L5.04823828,1.37143359 C5.19026953,1.37143359 5.30538281,1.25632031 5.30538281,1.11428906 C5.30538281,0.972257812 5.19026953,0.857144531 5.04823828,0.857144531 Z" id="Path"></path>
                    <path d="M4.61966016,0 L1.12252734,0 C0.980496094,0 0.865382813,0.115113281 0.865382813,0.257144531 C0.865382813,0.399175781 0.980496094,0.514289063 1.12252734,0.514289063 L4.61967187,0.514289063 C4.76170313,0.514289063 4.87681641,0.399175781 4.87681641,0.257144531 C4.87681641,0.115113281 4.76169141,0 4.61966016,0 Z" id="Path"></path>
                </g>
                <g id="play-button" transform="translate(3.000000, 6.000000)" stroke="#000000" stroke-width="0.25">
                    <path d="M3,0 C1.34569922,0 0,1.34582812 0,3 C0,4.65417188 1.34569922,6 3,6 C4.65430078,6 6,4.65417188 6,3 C6,1.34582812 4.65430078,0 3,0 Z M3,5.74999609 C1.48364063,5.74999609 0.249996094,4.51635937 0.249996094,3 C0.249996094,1.48364062 1.48364063,0.249996094 3,0.249996094 C4.51635937,0.249996094 5.74999609,1.48364063 5.74999609,3 C5.74999609,4.51635937 4.51635937,5.74999609 3,5.74999609 Z" id="Shape"></path>
                    <path d="M4.19262891,2.89489453 L2.44263281,1.76989453 C2.40430078,1.744875 2.35474219,1.74352734 2.31519141,1.76525391 C2.27490234,1.78722656 2.25,1.82922656 2.25,1.875 L2.25,4.125 C2.25,4.17077344 2.27490234,4.21277344 2.31519141,4.23474609 C2.33374219,4.24488281 2.35449609,4.25000391 2.37500391,4.25000391 C2.39844141,4.25000391 2.422125,4.24340625 2.44263281,4.23010547 L4.19262891,3.10510547 C4.22827734,3.08216016 4.25,3.04248047 4.25,3 C4.25,2.95751953 4.22827734,2.91785156 4.19262891,2.89489453 Z M2.49999609,3.89599219 L2.49999609,2.10400781 L3.89380078,3 L2.49999609,3.89599219 Z" id="Shape"></path>
                </g>
                <g id="noun_gif_533673" transform="translate(17.000000, 11.000000)">
                    <path d="M0.993240741,2.83863636 C1.15916667,2.93090909 1.35361111,2.97609091 1.57592593,2.97609091 C1.75157407,2.97609091 1.92462963,2.94363636 2.09574074,2.87872727 C2.26685185,2.81381818 2.39777778,2.73809091 2.48722222,2.65281818 L2.48722222,1.81918182 L1.55972222,1.81918182 L1.55972222,2.17172727 L2.05231481,2.17172727 L2.05231481,2.43709091 C1.9875,2.48672727 1.90972222,2.52936364 1.81962963,2.56309091 C1.72824074,2.59809091 1.6387963,2.61527273 1.54805556,2.61527273 C1.36592593,2.61527273 1.2187963,2.55290909 1.10601852,2.42945455 C0.993240741,2.30536364 0.9375,2.11890909 0.9375,1.87009091 C0.9375,1.64036364 0.992592593,1.466 1.10407407,1.34954545 C1.21490741,1.23245455 1.36398148,1.17390909 1.55194444,1.17390909 C1.67574074,1.17390909 1.78009259,1.20381818 1.86240741,1.26363636 C1.94472222,1.32345455 2.00175926,1.40427273 2.03157407,1.50736364 L2.4587037,1.42845455 C2.41657407,1.23627273 2.32064815,1.08609091 2.17222222,0.976636364 C2.0237963,0.867818182 1.81638889,0.813090909 1.55194444,0.813090909 C1.34907407,0.813090909 1.17861111,0.848090909 1.04185185,0.917454545 C0.862962963,1.00845455 0.726851852,1.13827273 0.633518519,1.30690909 C0.540185185,1.47681818 0.493518519,1.66963636 0.493518519,1.88790909 C0.493518519,2.08836364 0.535,2.27418182 0.618611111,2.44536364 C0.70287037,2.61590909 0.827314815,2.747 0.993240741,2.83863636 Z" id="Path"></path>
                    <rect id="Rectangle" x="2.87222222" y="0.848727273" width="1" height="2.09236364"></rect>
                    <polygon id="Path" points="4.14518519 2.05145455 5.03444444 2.05145455 5.03444444 1.69763636 4.14518519 1.69763636 4.14518519 1.20190909 5.17574074 1.20190909 5.17574074 0.848727273 3.71481481 0.848727273 3.71481481 2.94109091 4.14518519 2.94109091"></polygon>
                </g>
            </g>
        </g>
    </g>
</svg>