<?xml version="1.0" encoding="UTF-8"?>
<svg width="45px" height="40px" viewBox="0 0 45 40" version="1.1" xmlns="http://www.w3.org/2000/svg" xmlns:xlink="http://www.w3.org/1999/xlink">
    <!-- Generator: Sketch 64 (93537) - https://sketch.com -->
    <title>plan</title>
    <desc>Created with Sketch.</desc>
    <g id="Page-1" stroke="none" stroke-width="1" fill="none" fill-rule="evenodd">
        <g id="Artboard" transform="translate(-192.000000, -305.000000)" fill="#000000" fill-rule="nonzero">
            <g id="plan" transform="translate(192.000000, 305.000000)">
                <path d="M43.4619141,11.3986784 L36.4203643,11.3986784 L40.6250381,6.70636018 C40.8584976,6.44548458 40.9769439,6.1095815 40.9584045,5.75991189 C40.9395218,5.40989815 40.7860566,5.08844987 40.5261612,4.85441903 L38.7178803,3.22652811 C38.1812668,2.74332326 37.3524856,2.78772026 36.8708038,3.32564705 L29.6366501,11.3986784 L17.0463181,11.3986784 C16.682396,11.3986784 16.3871384,11.6943144 16.3871384,12.0594714 C16.3871384,12.4246283 16.682396,12.7202643 17.0463181,12.7202643 L28.4525299,12.7202643 L25.5116272,16.0022026 C25.2781677,16.262734 25.1600647,16.5989813 25.1786041,16.9486509 C25.1810074,16.9899505 25.1851272,17.0305617 25.1909638,17.0711729 L24.1802216,19.8110545 C24.0301895,20.2178552 24.1410828,20.6680204 24.4631196,20.9578056 C24.6605301,21.1357379 24.9097824,21.2279736 25.1621246,21.2279736 C25.3207397,21.2279736 25.4807281,21.1914923 25.6304169,21.1171531 L28.242073,19.8155286 C28.2585525,19.8162169 28.2746887,19.8179378 28.2915115,19.8179378 C28.3152008,19.8179378 28.3388901,19.8172494 28.3629226,19.8158728 C28.7117386,19.7969438 29.0324021,19.6434471 29.2662048,19.3825716 L35.2362442,12.7202643 L43.4619141,12.7202643 C43.583107,12.7202643 43.6816406,12.8190391 43.6816406,12.9405286 L43.6816406,38.3996421 C43.6816406,38.5211316 43.583107,38.6199064 43.4619141,38.6199064 L38.6663818,38.6199064 C38.3024597,38.6199064 38.0072021,38.9155424 38.0072021,39.2806994 C38.0072021,39.6455121 38.3024597,39.9414923 38.6663818,39.9414923 L43.4619141,39.9414923 C44.3099213,39.9414923 45,39.2497247 45,38.3996421 L45,12.9405286 C45,12.0901019 44.3099213,11.3986784 43.4619141,11.3986784 Z M39.6376419,5.83080952 L38.8545227,6.70429515 L37.0616913,5.09017075 L37.8448105,4.21634088 L39.6376419,5.83080952 Z M36.1807251,6.07344441 L36.5868759,6.43894546 L26.9055176,17.2432544 L26.4993667,16.8774092 L36.1807251,6.07344441 Z M26.1340713,18.3249587 L26.8955612,19.0108756 L25.6527329,19.6300248 L26.1340713,18.3249587 Z M28.2921982,18.4918777 L27.8860474,18.1263767 L37.567749,7.32206775 L37.9735566,7.68756881 L28.2921982,18.4918777 Z" id="Shape"></path>
                <path d="M35.7958603,38.6199064 L6.14753719,38.6199064 C3.484726,38.6199064 1.31835937,36.4482379 1.31835937,33.7789097 L1.31835937,33.4295842 C1.31835937,30.760256 3.48438261,28.5889317 6.14719389,28.5889317 L7.50194552,28.5889317 C8.35029598,28.5889317 9.04003146,27.8971641 9.04003146,27.0470815 L9.04003146,12.7202643 L14.1757965,12.7202643 C14.540062,12.7202643 14.8349762,12.4242841 14.8349762,12.0594714 C14.8349762,11.6943144 14.540062,11.3986784 14.1757965,11.3986784 L9.04003146,11.3986784 L9.04003146,9.1041437 C9.04003146,8.73933093 8.74511719,8.44335075 8.38085177,8.44335075 C8.01692965,8.44335075 7.72167208,8.73933093 7.72167208,9.1041437 L7.72167208,27.0470815 C7.72167208,27.168571 7.62313843,27.2673458 7.50194552,27.2673458 L6.14719389,27.2673458 C4.19094088,27.2673458 2.44480131,28.188326 1.31835937,29.6203882 L1.31835937,6.20663542 C1.31835937,3.53730731 3.484726,1.36563877 6.14753719,1.36563877 L7.50194552,1.36563877 C7.62313843,1.36563877 7.72167208,1.46441357 7.72167208,1.58590308 L7.72167208,6.22659692 C7.72167208,6.59175383 8.01692965,6.88738987 8.38085177,6.88738987 C8.74511719,6.88738987 9.04003146,6.59175383 9.04003146,6.22659692 L9.04003146,1.58590308 C9.04003146,0.735820441 8.35029598,0.0440528634 7.50194552,0.0440528634 L6.14753719,0.0440528634 C2.75791166,0.0440528634 0,2.80837004 0,6.20663542 L0,33.7789097 C0,37.1768309 2.75791166,39.9414923 6.14753719,39.9414923 L35.7958603,39.9414923 C36.1601257,39.9414923 36.45504,39.6455121 36.45504,39.2806994 C36.45504,38.9155424 36.1601257,38.6199064 35.7958603,38.6199064 Z" id="Path"></path>
                <path d="M35.1734161,18.3748624 C32.4807358,18.3748624 30.2728271,20.4907764 30.1148987,23.1508122 L27.0802688,23.1508122 C26.7163467,23.1508122 26.4210892,23.4467924 26.4210892,23.8116052 L26.4210892,31.359788 C26.4210892,31.7249449 26.7163467,32.020581 27.0802688,32.020581 L34.6100235,32.020581 C34.974289,32.020581 35.2692032,31.7249449 35.2692032,31.359788 L35.2692032,28.5348981 C38.0202485,28.4832737 40.2422333,26.2255644 40.2422333,23.4560848 C40.2422333,20.6542538 37.9684067,18.3748624 35.1734161,18.3748624 L35.1734161,18.3748624 Z M33.9511871,27.0095678 C32.7965927,26.6093062 31.8964004,25.6590722 31.5637207,24.4723981 L33.9511871,24.4723981 L33.9511871,27.0095678 Z M27.7394485,30.6989951 L27.7394485,24.4723981 L30.2069092,24.4723981 C30.5969238,26.3900744 32.0677185,27.9174697 33.9511871,28.386908 L33.9511871,30.6989951 L27.7394485,30.6989951 Z M35.2695465,27.2133122 L35.2695465,23.8116052 C35.2695465,23.4467924 34.974289,23.1508122 34.6103668,23.1508122 L31.4366913,23.1508122 C31.5922165,21.2200578 33.2082367,19.6964483 35.1737595,19.6964483 C37.2415924,19.6964483 38.9242172,21.3828469 38.9242172,23.4560848 C38.9238739,25.4969714 37.2930908,27.1620319 35.2695465,27.2133122 Z" id="Shape"></path>
                <path d="M37.6223374,28.9936674 C37.2580719,28.9936674 36.9631577,29.2893034 36.9631577,29.6544604 C36.9631577,30.0192731 37.2580719,30.3152533 37.6223374,30.3152533 L39.0886689,30.3152533 C39.4529343,30.3152533 39.7478486,30.0192731 39.7478486,29.6544604 C39.7478486,29.2893034 39.4529343,28.9936674 39.0886689,28.9936674 L37.6223374,28.9936674 Z" id="Path"></path>
                <path d="M39.7478486,31.359788 C39.7478486,30.9949752 39.4529343,30.6989951 39.0886689,30.6989951 L37.6223374,30.6989951 C37.2580719,30.6989951 36.9631577,30.9949752 36.9631577,31.359788 C36.9631577,31.7249449 37.2580719,32.020581 37.6223374,32.020581 L39.0886689,32.020581 C39.4529343,32.020581 39.7478486,31.7249449 39.7478486,31.359788 L39.7478486,31.359788 Z" id="Path"></path>
                <path d="M12.0410156,18.1115776 L13.0957031,18.1115776 C13.4596252,18.1115776 13.7548828,17.8159417 13.7548828,17.4507847 C13.7548828,17.0859719 13.4596252,16.7899917 13.0957031,16.7899917 L12.0410156,16.7899917 C11.6770935,16.7899917 11.3818359,17.0859719 11.3818359,17.4507847 C11.3818359,17.8159417 11.6770935,18.1115776 12.0410156,18.1115776 Z" id="Path"></path>
                <path d="M12.0410156,20.0368255 L17.1294021,20.0368255 C17.4936676,20.0368255 17.7885818,19.7408453 17.7885818,19.3760325 C17.7885818,19.0108756 17.4936676,18.7152396 17.1294021,18.7152396 L12.0410156,18.7152396 C11.6770935,18.7152396 11.3818359,19.0108756 11.3818359,19.3760325 C11.3818359,19.7408453 11.6770935,20.0368255 12.0410156,20.0368255 Z" id="Path"></path>
                <path d="M16.0747146,18.1115776 L17.1294021,18.1115776 C17.4936676,18.1115776 17.7885818,17.8159417 17.7885818,17.4507847 C17.7885818,17.0859719 17.4936676,16.7899917 17.1294021,16.7899917 L16.0747146,16.7899917 C15.7107925,16.7899917 15.415535,17.0859719 15.415535,17.4507847 C15.415535,17.8159417 15.7107925,18.1115776 16.0747146,18.1115776 Z" id="Path"></path>
                <path d="M21.1631012,16.7899917 L20.1084137,16.7899917 C19.7444916,16.7899917 19.449234,17.0859719 19.449234,17.4507847 C19.449234,17.8159417 19.7444916,18.1115776 20.1084137,18.1115776 L21.1631012,18.1115776 C21.5273667,18.1115776 21.8222808,17.8159417 21.8222808,17.4507847 C21.8222808,17.0859719 21.5273667,16.7899917 21.1631012,16.7899917 Z" id="Path"></path>
                <path d="M12.0410156,21.9476184 L17.1294021,21.9476184 C17.4936676,21.9476184 17.7885818,21.6516382 17.7885818,21.2868255 C17.7885818,20.9216685 17.4936676,20.6260325 17.1294021,20.6260325 L12.0410156,20.6260325 C11.6770935,20.6260325 11.3818359,20.9216685 11.3818359,21.2868255 C11.3818359,21.6516382 11.6770935,21.9476184 12.0410156,21.9476184 Z" id="Path"></path>
                <path d="M11.3818359,23.1972742 C11.3818359,23.5624312 11.6770935,23.8580671 12.0410156,23.8580671 L20.1084137,23.8580671 C20.4726792,23.8580671 20.7675933,23.5624312 20.7675933,23.1972742 C20.7675933,22.8324615 20.4726792,22.5364812 20.1084137,22.5364812 L12.0410156,22.5364812 C11.6770935,22.5364812 11.3818359,22.8324615 11.3818359,23.1972742 Z" id="Path"></path>
                <path d="M21.8222808,25.1080671 C21.8222808,24.7432544 21.5273667,24.4472742 21.1631012,24.4472742 L12.0410156,24.4472742 C11.6770935,24.4472742 11.3818359,24.7432544 11.3818359,25.1080671 C11.3818359,25.4732241 11.6770935,25.7688601 12.0410156,25.7688601 L21.1631012,25.7688601 C21.5273667,25.7688601 21.8222808,25.4732241 21.8222808,25.1080671 Z" id="Path"></path>
                <path d="M14.516716,28.1866052 C14.516716,27.8214483 14.2214585,27.5258122 13.8575363,27.5258122 L12.0410156,27.5258122 C11.6770935,27.5258122 11.3818359,27.8214483 11.3818359,28.1866052 L11.3818359,30.0072274 C11.3818359,30.3723843 11.6770935,30.6680204 12.0410156,30.6680204 L13.8575363,30.6680204 C14.2214585,30.6680204 14.516716,30.3723843 14.516716,30.0072274 L14.516716,28.1866052 Z M13.1983567,29.3467787 L12.7001953,29.3467787 L12.7001953,28.8473981 L13.1983567,28.8473981 L13.1983567,29.3467787 Z" id="Shape"></path>
                <path d="M18.874855,28.1866052 C18.874855,27.8214483 18.5795975,27.5258122 18.2156753,27.5258122 L16.3991547,27.5258122 C16.0352325,27.5258122 15.739975,27.8214483 15.739975,28.1866052 L15.739975,30.0072274 C15.739975,30.3723843 16.0352325,30.6680204 16.3991547,30.6680204 L18.2156753,30.6680204 C18.5795975,30.6680204 18.874855,30.3723843 18.874855,30.0072274 L18.874855,28.1866052 Z M17.5564956,29.3467787 L17.0583344,29.3467787 L17.0583344,28.8473981 L17.5564956,28.8473981 L17.5564956,29.3467787 Z" id="Shape"></path>
                <path d="M23.2333374,28.1866052 C23.2333374,27.8214483 22.9380798,27.5258122 22.5741577,27.5258122 L20.757637,27.5258122 C20.3933716,27.5258122 20.0984573,27.8214483 20.0984573,28.1866052 L20.0984573,30.0072274 C20.0984573,30.3723843 20.3933716,30.6680204 20.757637,30.6680204 L22.5741577,30.6680204 C22.9380798,30.6680204 23.2333374,30.3723843 23.2333374,30.0072274 L23.2333374,28.1866052 Z M21.914978,29.3467787 L21.4168167,29.3467787 L21.4168167,28.8473981 L21.914978,28.8473981 L21.914978,29.3467787 Z" id="Shape"></path>
                <path d="M13.8575363,32.1661619 L12.0410156,32.1661619 C11.6770935,32.1661619 11.3818359,32.4617979 11.3818359,32.8269549 L11.3818359,34.6475771 C11.3818359,35.012734 11.6770935,35.30837 12.0410156,35.30837 L13.8575363,35.30837 C14.2214585,35.30837 14.516716,35.012734 14.516716,34.6475771 L14.516716,32.8269549 C14.516716,32.4617979 14.2214585,32.1661619 13.8575363,32.1661619 Z M13.1983567,33.9867841 L12.7001953,33.9867841 L12.7001953,33.4874036 L13.1983567,33.4874036 L13.1983567,33.9867841 Z" id="Shape"></path>
                <path d="M18.2156753,32.1661619 L16.3991547,32.1661619 C16.0352325,32.1661619 15.739975,32.4617979 15.739975,32.8269549 L15.739975,34.6475771 C15.739975,35.012734 16.0352325,35.30837 16.3991547,35.30837 L18.2156753,35.30837 C18.5795975,35.30837 18.874855,35.012734 18.874855,34.6475771 L18.874855,32.8269549 C18.874855,32.4617979 18.5795975,32.1661619 18.2156753,32.1661619 Z M17.5564956,33.9867841 L17.0583344,33.9867841 L17.0583344,33.4874036 L17.5564956,33.4874036 L17.5564956,33.9867841 Z" id="Shape"></path>
                <path d="M20.757637,35.30837 L22.5741577,35.30837 C22.9380798,35.30837 23.2333374,35.012734 23.2333374,34.6475771 L23.2333374,32.8266107 C23.2333374,32.4617979 22.9380798,32.1658177 22.5741577,32.1658177 L20.757637,32.1658177 C20.3933716,32.1658177 20.0984573,32.4617979 20.0984573,32.8266107 L20.0984573,34.6475771 C20.0984573,35.012734 20.3933716,35.30837 20.757637,35.30837 Z M21.4168167,33.4877478 L21.914978,33.4877478 L21.914978,33.9867841 L21.4168167,33.9867841 L21.4168167,33.4877478 Z" id="Shape"></path>
            </g>
        </g>
    </g>
</svg>